<svg width="139" height="50" viewBox="0 0 139 50" fill="none" xmlns="http://www.w3.org/2000/svg">
<g clip-path="url(#clip0_29_224)">
<path d="M15.3073 6.25H0.0625V42.7083L15.3073 6.25Z" fill="#E6E6E6"/>
<path d="M26.0342 6.25H41.2591V42.7083L26.0342 6.25Z" fill="#E6E6E6"/>
<path d="M20.6694 19.6875L30.3724 42.7086H24.0063L21.1064 35.3792H14.0054L20.6694 19.6875Z" fill="#E6E6E6"/>
<path d="M66.1289 29.4343L67.9265 34.5887C67.9861 34.7178 68.0755 34.7774 68.2344 34.7774H71.6905C71.8792 34.7774 71.909 34.688 71.8792 34.4993L64.7385 14.6662C64.7087 14.5073 64.6789 14.4775 64.52 14.4775H60.2296C60.1105 14.4775 60.0409 14.5669 60.0409 14.696C59.9813 15.7388 59.892 16.0566 59.7629 16.3645L53.3968 34.4695C53.367 34.688 53.4365 34.7774 53.6153 34.7774H56.704C56.8927 34.7774 56.9821 34.7178 57.0516 34.5291L58.7499 29.4343H66.1289ZM59.7331 26.0675C60.6666 23.247 61.8981 19.632 62.3947 17.5662H62.4245C63.0402 19.7313 64.4902 24.0217 65.1457 26.0675H59.7331Z" fill="#E6E6E6"/>
<path d="M81.0588 35.0843C82.9159 35.0843 84.8923 34.7467 86.8984 33.8826C87.0574 33.823 87.0871 33.7535 87.0871 33.6046C87.0276 33.0484 86.958 32.244 86.958 31.6282V12.9571C86.958 12.8379 86.958 12.7783 86.8091 12.7783H83.4423C83.3132 12.7783 83.2536 12.8379 83.2536 12.9968V19.3231C82.7272 19.2636 82.3598 19.2338 81.9228 19.2338C76.4903 19.2338 73.1533 22.819 73.1533 27.2981C73.1533 32.4922 76.5797 35.0843 81.0588 35.0843ZM83.2536 31.6282C82.6974 31.807 82.0817 31.8765 81.456 31.8765C78.993 31.8765 76.9769 30.4861 76.9769 27.1094C76.9769 24.12 79.0526 22.3522 81.8036 22.3522C82.3598 22.3522 82.8464 22.4118 83.2536 22.5707V31.6282Z" fill="#E6E6E6"/>
<path d="M97.827 19.2334C93.189 19.2334 90.3188 22.7889 90.3188 27.1786C90.3188 31.1015 92.6031 35.084 97.7575 35.084C102.117 35.084 105.176 31.8761 105.176 27.0792C105.176 22.8484 102.584 19.2334 97.827 19.2334ZM97.6383 22.3519C100.26 22.3519 101.373 24.6063 101.373 27.1786C101.373 30.3566 99.7339 31.9357 97.827 31.9357C95.4733 31.9357 94.0829 29.9594 94.0829 27.109C94.0829 24.1793 95.5626 22.3519 97.6383 22.3519Z" fill="#E6E6E6"/>
<path d="M108.657 12.7783C108.528 12.7783 108.439 12.8379 108.439 12.9968V34.1309C108.439 34.2203 108.528 34.3792 108.657 34.409C110.137 34.8659 111.687 35.0843 113.286 35.0843C117.864 35.0843 122.313 32.244 122.313 26.5234C122.313 22.382 119.473 19.2338 115.024 19.2338C114.001 19.2338 113.047 19.3927 112.213 19.6707L112.173 13.0266C112.173 12.8081 112.114 12.7783 111.895 12.7783H108.657ZM118.509 26.9008C118.509 30.3272 116.166 31.9361 113.633 31.9361C113.107 31.9361 112.64 31.9063 112.213 31.7772V22.7594C112.7 22.5707 113.286 22.4118 114.368 22.4118C116.811 22.4118 118.509 23.9611 118.509 26.9008Z" fill="#E6E6E6"/>
<path d="M134.879 28.0128C136.388 28.0128 137.63 27.983 138.057 27.8837C138.216 27.8539 138.275 27.7943 138.305 27.6652C138.394 27.3275 138.434 26.6224 138.434 25.7584C138.434 22.8187 136.666 19.2334 132.098 19.2334C127.43 19.2334 124.838 23.0371 124.838 27.3275C124.838 31.1313 126.844 35.084 132.465 35.084C134.571 35.084 135.931 34.7463 137.103 34.1902C137.222 34.1306 137.282 34.0313 137.282 33.8525V31.2802C137.282 31.1313 137.193 31.1015 137.103 31.1611C135.931 31.6576 134.66 31.9059 133.27 31.9059C130.121 31.9059 128.691 30.1679 128.602 28.0128H134.879ZM128.602 25.3512C128.85 23.8416 129.804 22.2029 131.939 22.2029C134.293 22.2029 134.908 24.1793 134.908 25.0731C134.908 25.1029 134.908 25.232 134.908 25.3214C134.779 25.3512 134.382 25.3512 133.21 25.3512H128.602Z" fill="#E6E6E6"/>
</g>
<defs>
<clipPath id="clip0_29_224">
<rect width="138.542" height="50" fill="white" transform="translate(0.0625)"/>
</clipPath>
</defs>
</svg>
