<svg width="116" height="50" viewBox="0 0 116 50" fill="none" xmlns="http://www.w3.org/2000/svg">
<g clip-path="url(#clip0_29_220)">
<path fill-rule="evenodd" clip-rule="evenodd" d="M71.4717 39.3812C64.843 44.2671 55.2351 46.8739 46.9629 46.8739C35.3639 46.8739 24.9218 42.5838 17.022 35.4486C16.4013 34.8876 16.9574 34.1229 17.7022 34.5598C26.2277 39.5202 36.7691 42.5044 47.658 42.5044C55.0017 42.5044 63.0803 40.985 70.5085 37.832C71.6306 37.3553 72.5691 38.5669 71.4717 39.3812Z" fill="#E6E6E6"/>
<path fill-rule="evenodd" clip-rule="evenodd" d="M74.2276 36.2282C73.3835 35.1458 68.6267 35.7168 66.4916 35.97C65.8412 36.0495 65.7419 35.4834 66.3278 35.0763C70.1163 32.4099 76.3329 33.1795 77.0578 34.0733C77.7827 34.972 76.8691 41.2035 73.309 44.1777C72.7628 44.6345 72.2414 44.3912 72.4847 43.7855C73.2842 41.7894 75.0766 37.3156 74.2276 36.2282Z" fill="#E6E6E6"/>
<path fill-rule="evenodd" clip-rule="evenodd" d="M66.6427 16.2538V13.6619C66.6427 13.2696 66.9406 13.0065 67.2981 13.0065H78.9021C79.2745 13.0065 79.5724 13.2746 79.5724 13.6619V15.8814C79.5675 16.2538 79.2546 16.7404 78.6985 17.51L72.6855 26.0951C74.9199 26.0405 77.2784 26.3731 79.3043 27.5152C79.7611 27.7733 79.8852 28.1507 79.92 28.5231V31.2888C79.92 31.6662 79.5029 32.1081 79.0659 31.8797C75.4959 30.0077 70.754 29.8042 66.8065 31.8995C66.4044 32.118 65.9823 31.6811 65.9823 31.3037V28.677C65.9823 28.255 65.9873 27.535 66.4093 26.8945L73.3757 16.9042H67.313C66.9406 16.9042 66.6427 16.6411 66.6427 16.2538Z" fill="#E6E6E6"/>
<path fill-rule="evenodd" clip-rule="evenodd" d="M24.3132 32.4259H20.7829C20.4452 32.4011 20.1771 32.1478 20.1523 31.8251V13.7066C20.1523 13.3441 20.4552 13.0562 20.8325 13.0562H24.1245C24.4672 13.071 24.7402 13.3342 24.7651 13.6619V16.0304H24.8296C25.6886 13.7414 27.3024 12.6738 29.4772 12.6738C31.6867 12.6738 33.0671 13.7414 34.0602 16.0304C34.9142 13.7414 36.8556 12.6738 38.9361 12.6738C40.4158 12.6738 42.0345 13.2846 43.0226 14.655C44.1398 16.1793 43.9114 18.3939 43.9114 20.3353L43.9064 31.7705C43.9064 32.1329 43.6035 32.4259 43.2262 32.4259H39.7008C39.3482 32.4011 39.0652 32.118 39.0652 31.7705V22.1675C39.0652 21.4029 39.1347 19.4962 38.9659 18.7712C38.7028 17.5547 37.9133 17.2121 36.8904 17.2121C36.0364 17.2121 35.1426 17.7831 34.7801 18.6968C34.4177 19.6104 34.4524 21.1397 34.4524 22.1675V31.7705C34.4524 32.1329 34.1495 32.4259 33.7722 32.4259H30.2468C29.8893 32.4011 29.6112 32.118 29.6112 31.7705L29.6063 22.1675C29.6063 20.1466 29.9389 17.1724 27.4315 17.1724C24.8942 17.1724 24.9935 20.0722 24.9935 22.1675V31.7705C24.9935 32.1329 24.6906 32.4259 24.3132 32.4259Z" fill="#E6E6E6"/>
<path fill-rule="evenodd" clip-rule="evenodd" d="M89.5625 12.6738C94.8009 12.6738 97.6361 17.1724 97.6361 22.8925C97.6361 28.4189 94.503 32.8033 89.5625 32.8033C84.4184 32.8033 81.618 28.3047 81.618 22.6988C81.618 17.0582 84.4532 12.6738 89.5625 12.6738ZM89.5923 16.373C86.9905 16.373 86.8266 19.9182 86.8266 22.1278C86.8266 24.3423 86.7919 29.0693 89.5625 29.0693C92.2984 29.0693 92.4275 25.256 92.4275 22.9322C92.4275 21.4029 92.363 19.5756 91.9012 18.1258C91.504 16.8646 90.7145 16.373 89.5923 16.373Z" fill="#E6E6E6"/>
<path fill-rule="evenodd" clip-rule="evenodd" d="M104.429 32.4259H100.913C100.561 32.4011 100.278 32.118 100.278 31.7705L100.273 13.647C100.303 13.3143 100.596 13.0562 100.953 13.0562H104.225C104.533 13.071 104.786 13.2796 104.856 13.5626V16.3333H104.92C105.909 13.8556 107.294 12.6738 109.732 12.6738C111.316 12.6738 112.86 13.2448 113.853 14.8089C114.777 16.2588 114.777 18.6968 114.777 20.4495V31.8549C114.737 32.1727 114.444 32.4259 114.096 32.4259H110.556C110.233 32.4011 109.965 32.1627 109.93 31.8549V22.0136C109.93 20.0324 110.159 17.1327 107.721 17.1327C106.862 17.1327 106.072 17.7087 105.68 18.5826C105.184 19.6898 105.119 20.7921 105.119 22.0136V31.7705C105.114 32.1329 104.806 32.4259 104.429 32.4259Z" fill="#E6E6E6"/>
<path fill-rule="evenodd" clip-rule="evenodd" d="M57.3923 23.7713C57.3923 25.1467 57.4271 26.2937 56.7319 27.5152C56.1708 28.5082 55.2771 29.119 54.289 29.119C52.9334 29.119 52.139 28.0862 52.139 26.5618C52.139 23.5528 54.8352 23.0066 57.3923 23.0066V23.7713ZM60.9524 32.3762C60.7191 32.5848 60.3814 32.5997 60.1183 32.4606C58.9465 31.4874 58.7329 31.0356 58.0924 30.1071C56.1559 32.0833 54.7805 32.6741 52.2731 32.6741C49.2988 32.6741 46.9899 30.8419 46.9899 27.1726C46.9899 24.3076 48.5391 22.3562 50.7537 21.4028C52.6703 20.5587 55.3466 20.4098 57.3923 20.1764V19.7196C57.3923 18.8804 57.4569 17.8874 56.9603 17.1624C56.5333 16.512 55.7091 16.2439 54.9792 16.2439C53.6336 16.2439 52.4369 16.934 52.144 18.3641C52.0844 18.6818 51.851 18.9947 51.5283 19.0095L48.1071 18.6421C47.8192 18.5776 47.4964 18.3442 47.5808 17.9023C48.3653 13.7513 52.1191 12.5 55.4757 12.5C57.1937 12.5 59.438 12.9568 60.7936 14.2577C62.5116 15.8615 62.3477 18.0016 62.3477 20.3303V25.8319C62.3477 27.4854 63.0329 28.2103 63.6784 29.1041C63.9019 29.4218 63.9515 29.8042 63.6635 30.0425C62.9435 30.6433 61.6625 31.7605 60.9574 32.3861L60.9524 32.3762Z" fill="#E6E6E6"/>
<path fill-rule="evenodd" clip-rule="evenodd" d="M11.1104 23.7713C11.1104 25.1467 11.1451 26.2937 10.45 27.5151C9.88889 28.5082 9.0001 29.1189 8.00704 29.1189C6.6515 29.1189 5.86202 28.0862 5.86202 26.5618C5.86202 23.5528 8.55819 23.0066 11.1104 23.0066V23.7713ZM14.6705 32.3762C14.4371 32.5847 14.0995 32.5996 13.8363 32.4606C12.6645 31.4874 12.456 31.0356 11.8105 30.107C9.874 32.0832 8.50357 32.6741 5.99111 32.6741C3.02185 32.6741 0.708008 30.8419 0.708008 27.1725C0.708008 24.3075 2.26215 22.3562 4.47172 21.4028C6.38834 20.5587 9.06465 20.4098 11.1104 20.1764V19.7196C11.1104 18.8804 11.1749 17.8874 10.6833 17.1624C10.2514 16.512 9.42712 16.2439 8.70218 16.2439C7.35658 16.2439 6.15497 16.934 5.86202 18.364C5.80243 18.6818 5.56906 18.9946 5.25128 19.0095L1.82521 18.6421C1.53722 18.5776 1.21944 18.3442 1.29888 17.9023C2.08837 13.7513 5.83719 12.5 9.19375 12.5C10.9118 12.5 13.1561 12.9568 14.5116 14.2577C16.2296 15.8615 16.0658 18.0016 16.0658 20.3303V25.8319C16.0658 27.4854 16.751 28.2103 17.3965 29.1041C17.6249 29.4218 17.6745 29.8042 17.3865 30.0425C16.6666 30.6433 15.3855 31.7605 14.6804 32.3861L14.6705 32.3762Z" fill="#E6E6E6"/>
</g>
<defs>
<clipPath id="clip0_29_220">
<rect width="114.583" height="50" fill="white" transform="translate(0.708008)"/>
</clipPath>
</defs>
</svg>
