<svg width="31" height="30" viewBox="0 0 31 30" fill="none" xmlns="http://www.w3.org/2000/svg">
<path d="M12.2834 21.8952H22.9502C24.2825 21.8952 24.7577 21.5194 24.7577 20.7845C24.7577 18.63 22.0168 15.6571 17.6125 15.6571C13.2168 15.6571 10.4759 18.63 10.4759 20.7845C10.4759 21.5194 10.9511 21.8952 12.2834 21.8952ZM17.621 14.1623C19.4455 14.1623 21.0154 12.5589 21.0154 10.4712C21.0154 8.40857 19.4371 6.88037 17.621 6.88037C15.805 6.88037 14.2266 8.44198 14.2266 10.4879C14.2266 12.5589 15.7965 14.1623 17.621 14.1623ZM3.11853 21.8952H9.56789C8.68532 20.6342 9.76305 18.0956 11.5875 16.7093C10.6455 16.0914 9.43204 15.632 7.8452 15.632C4.01804 15.632 1.625 18.4129 1.625 20.7261C1.625 21.4777 2.0493 21.8952 3.11853 21.8952ZM7.85369 14.3544C9.43204 14.3544 10.8068 12.9514 10.8068 11.1393C10.8068 9.34387 9.42357 8.01608 7.85369 8.01608C6.27531 8.01608 4.88361 9.37727 4.89209 11.156C4.89209 12.9514 6.26682 14.3544 7.85369 14.3544ZM23.9006 13.9118C24.1892 14.1038 24.588 14.0454 24.8171 13.7197C25.4705 12.8762 25.8609 11.632 25.8609 10.3543C25.8609 9.07664 25.4705 7.84072 24.8171 6.98894C24.588 6.66325 24.1892 6.60479 23.9006 6.79686C23.5612 7.03069 23.5018 7.44823 23.7733 7.79062C24.2655 8.45868 24.5455 9.38562 24.5455 10.3543C24.5455 11.323 24.257 12.2416 23.7733 12.918C23.5103 13.2687 23.5612 13.6696 23.9006 13.9118ZM27.0489 16.0914C27.3629 16.3001 27.7532 16.225 27.9824 15.9077C29.0686 14.4379 29.705 12.417 29.705 10.3543C29.705 8.29166 29.0771 6.25406 27.9824 4.80101C27.7532 4.48368 27.3629 4.40852 27.0489 4.61729C26.735 4.82607 26.6841 5.21856 26.9301 5.56094C27.8551 6.84697 28.3897 8.57559 28.3897 10.3543C28.3897 12.1331 27.8381 13.8533 26.9301 15.1477C26.6925 15.4901 26.735 15.8826 27.0489 16.0914Z" fill="#9EFF00"/>
</svg>
