<svg width="31" height="30" viewBox="0 0 31 30" fill="none" xmlns="http://www.w3.org/2000/svg">
<path d="M7.1281 20.8667L7.43498 22.0942C7.82369 23.69 8.67272 24.5084 10.3605 24.5084H21.3774C23.0755 24.5084 23.9143 23.7105 24.3132 22.0942L24.6201 20.8667H7.1281ZM6.79054 19.4653H24.9678L26.8909 11.5888L26.0521 11.1081L21.3365 14.5451C20.9887 14.7906 20.7534 14.6985 20.559 14.4224L16.1196 7.71198L15.6286 7.69152L11.1482 14.453C10.9743 14.719 10.7697 14.8008 10.4219 14.5553L5.79831 11.1797L4.8163 11.4354L6.79054 19.4653ZM5.19478 13.6347C6.54504 13.6347 7.62933 12.5402 7.62933 11.1797C7.62933 9.84988 6.54504 8.74512 5.19478 8.74512C3.84453 8.74512 2.75 9.83965 2.75 11.1797C2.75 12.5402 3.85475 13.6347 5.19478 13.6347ZM15.8741 9.37933C17.2141 9.37933 18.3086 8.28481 18.3086 6.93455C18.3086 5.60475 17.2141 4.5 15.8741 4.5C14.5136 4.5 13.4293 5.59453 13.4293 6.93455C13.4293 8.28481 14.5238 9.37933 15.8741 9.37933ZM26.5431 13.6347C27.8832 13.6347 28.9879 12.5402 28.9879 11.1797C28.9879 9.83965 27.8934 8.74512 26.5431 8.74512C25.2032 8.74512 24.1086 9.84988 24.1086 11.1797C24.1086 12.5402 25.2032 13.6347 26.5431 13.6347Z" fill="#9EFF00"/>
</svg>
