<svg width="30" height="30" viewBox="0 0 30 30" fill="none" xmlns="http://www.w3.org/2000/svg">
<path fill-rule="evenodd" clip-rule="evenodd" d="M25.7483 1.875C25.2791 1.875 24.8204 2.01389 24.43 2.27417L18.0812 6.50666C16.4088 7.62163 14.8928 8.94302 13.5665 10.4347C16.2101 11.6552 18.3449 13.79 19.5654 16.4336C21.057 15.1073 22.3784 13.5913 23.4934 11.9188L27.7259 5.57011C27.9862 5.17969 28.1251 4.72096 28.1251 4.25173C28.1251 2.9391 27.061 1.875 25.7483 1.875ZM15.3745 19.4061C16.2718 18.9076 17.1328 18.3521 17.9527 17.7441C16.9125 15.1544 14.8457 13.0876 12.2559 12.0473C11.6479 12.8672 11.0925 13.7282 10.5939 14.6256L10.2458 15.2523C12.4164 15.8731 14.127 17.5837 14.7478 19.7543L15.3745 19.4061ZM8.43756 16.875C5.8487 16.875 3.75007 18.9736 3.75007 21.5625C3.75007 22.598 2.9106 23.4375 1.87507 23.4375C1.83261 23.4375 1.79035 23.4361 1.74837 23.4333C1.40318 23.4105 1.07347 23.5796 0.890644 23.8733C0.707815 24.167 0.701579 24.5375 0.874423 24.8372C2.00667 26.8002 4.12933 28.125 6.56256 28.125C10.1869 28.125 13.1251 25.1869 13.1251 21.5625C13.1251 18.9736 11.0264 16.875 8.43756 16.875Z" fill="#9EFF00"/>
</svg>
