<svg width="31" height="30" viewBox="0 0 31 30" fill="none" xmlns="http://www.w3.org/2000/svg">
<path d="M14.729 6.67117C14.729 6.22723 14.4964 5.82595 14.2275 5.47275C13.9514 5.11013 13.7915 4.68 13.7915 4.21875C13.7915 2.92433 15.0507 1.875 16.604 1.875C18.1573 1.875 19.4165 2.92433 19.4165 4.21875C19.4165 4.68 19.2566 5.11013 18.9805 5.47275C18.7116 5.82595 18.479 6.22723 18.479 6.67117C18.479 7.08661 18.8261 7.41825 19.2408 7.3935C21.6291 7.25099 23.9788 6.9666 26.2817 6.54873C26.5352 6.50274 26.7964 6.56306 27.004 6.71551C27.2116 6.86796 27.3473 7.09913 27.3793 7.35471C27.6594 9.59155 27.8181 11.8658 27.8488 14.1706C27.855 14.6285 27.4832 14.9999 27.0252 15C26.5812 15 26.18 14.7674 25.8267 14.4985C25.4641 14.2224 25.034 14.0625 24.5728 14.0625C23.2783 14.0625 22.229 15.3217 22.229 16.875C22.229 18.4283 23.2783 19.6875 24.5728 19.6875C25.034 19.6875 25.4641 19.5276 25.8267 19.2515C26.18 18.9826 26.5812 18.75 27.0252 18.75C27.4132 18.75 27.7213 19.0771 27.6933 19.4641C27.545 21.5123 27.2954 23.5327 26.9494 25.5202C26.8816 25.9099 26.5764 26.2152 26.1866 26.283C23.9127 26.6787 21.5958 26.9484 19.2434 27.0846C18.8271 27.1087 18.479 26.7756 18.479 26.3587C18.479 25.9147 18.7116 25.5135 18.9805 25.1602C19.2566 24.7976 19.4165 24.3675 19.4165 23.9062C19.4165 22.6118 18.1573 21.5625 16.604 21.5625C15.0507 21.5625 13.7915 22.6118 13.7915 23.9062C13.7915 24.3675 13.9514 24.7976 14.2275 25.1602C14.4964 25.5135 14.729 25.9147 14.729 26.3587C14.729 26.8106 14.359 27.1757 13.9072 27.1628C11.9203 27.1065 9.95698 26.955 8.02167 26.7127C7.76608 26.6807 7.53492 26.5449 7.38247 26.3373C7.23001 26.1297 7.1697 25.8685 7.21569 25.6151C7.58179 23.5976 7.84544 21.5442 8.001 19.4604C8.02973 19.0756 7.72354 18.75 7.33767 18.75C6.89373 18.75 6.49246 18.9826 6.13925 19.2515C5.77663 19.5276 5.3465 19.6875 4.88525 19.6875C3.59084 19.6875 2.5415 18.4283 2.5415 16.875C2.5415 15.3217 3.59084 14.0625 4.88525 14.0625C5.3465 14.0625 5.77663 14.2224 6.13925 14.4985C6.49246 14.7674 6.89373 15 7.33768 15C7.79563 15 8.16747 14.6287 8.16117 14.1708C8.13318 12.1356 8.00228 10.1253 7.77349 8.14535C7.74063 7.86101 7.83948 7.57723 8.04188 7.37483C8.24428 7.17243 8.52806 7.07358 8.81241 7.10644C10.4903 7.30032 12.1898 7.4239 13.9078 7.47414C14.3592 7.48734 14.729 7.12271 14.729 6.67117Z" fill="#9EFF00"/>
</svg>
