<svg width="30" height="30" viewBox="0 0 30 30" fill="none" xmlns="http://www.w3.org/2000/svg">
<path d="M15.2724 28.8254C19.5359 28.8254 22.9758 25.3855 22.9758 21.1341C22.9758 16.8705 19.5359 13.4307 15.2724 13.4307C11.021 13.4307 7.58106 16.8705 7.58106 21.1341C7.58106 25.3855 11.021 28.8254 15.2724 28.8254ZM13.08 25.0948C12.6198 25.4339 12.1353 25.0827 12.317 24.5498L13.1891 21.9456L10.9604 20.3589C10.5365 20.044 10.6697 19.4505 11.2511 19.4505L13.9885 19.4747L14.8242 16.8585C14.9938 16.3255 15.5751 16.3255 15.7448 16.8585L16.5805 19.4747L19.3179 19.4505C19.8993 19.4505 20.0204 20.0561 19.6086 20.3468L17.3799 21.9456L18.252 24.5498C18.4337 25.0827 17.9492 25.4339 17.4889 25.0948L15.2845 23.4838L13.08 25.0948ZM7.89598 15.3686C9.08299 13.8666 10.7182 12.7281 12.5956 12.1709L7.10868 2.31153L3.92313 7.16857C3.70511 7.48349 3.693 7.83475 3.8868 8.14966L7.89598 15.3686ZM12.5592 8.04065H17.9977L21.6919 1.5H8.86496L12.5592 8.04065ZM17.9613 12.1709C19.8509 12.7281 21.4739 13.8666 22.6609 15.3686L26.6822 8.14966C26.8639 7.83475 26.8518 7.48349 26.6338 7.16857L23.4482 2.31153L17.9613 12.1709Z" fill="#9EFF00"/>
</svg>
