<svg width="31" height="30" viewBox="0 0 31 30" fill="none" xmlns="http://www.w3.org/2000/svg">
<path d="M11.7972 17.0473C11.7972 16.9415 11.8513 16.8463 11.9378 16.7405L16.4041 11.2492C16.7393 10.826 17.3017 11.1116 17.1071 11.6301L15.6363 15.492H18.3939C18.5994 15.492 18.7833 15.6507 18.7833 15.8412C18.7833 15.947 18.7292 16.0634 18.6318 16.1585L14.1764 21.6392C13.8411 22.0625 13.268 21.7768 13.4627 21.269L14.9442 17.3965H12.1757C11.9703 17.3965 11.7972 17.2484 11.7972 17.0473ZM5.97917 24.7288H24.6878C26.9589 24.7288 28.0835 23.639 28.0835 21.4594V11.228C28.0835 9.04842 26.9589 7.95862 24.6878 7.95862H23.1954V6.54083C23.1954 5.73671 22.7196 5.25 21.887 5.25H18.6967C17.8748 5.25 17.399 5.73671 17.399 6.54083V7.95862H13.2788V6.54083C13.2788 5.73671 12.8029 5.25 11.9703 5.25H8.78006C7.94737 5.25 7.48235 5.73671 7.48235 6.54083V7.95862H5.97917C3.71899 7.95862 2.5835 9.04842 2.5835 11.228V21.4594C2.5835 23.639 3.71899 24.7288 5.97917 24.7288Z" fill="#9EFF00"/>
</svg>
