<svg width="30" height="30" viewBox="0 0 30 30" fill="none" xmlns="http://www.w3.org/2000/svg">
<path d="M14.728 27.495C14.9281 27.495 15.2407 27.4198 15.5533 27.2573C22.6678 23.5312 24.9561 21.6682 24.9561 17.1794V7.75158C24.9561 6.4637 24.4058 6.05108 23.3556 5.61345C21.8927 5.01327 17.2163 3.31277 15.7658 2.81263C15.4282 2.70009 15.0781 2.63757 14.728 2.63757C14.3779 2.63757 14.0278 2.7126 13.7027 2.81263C12.2398 3.28777 7.5634 5.02578 6.10047 5.61345C5.06267 6.03858 4.5 6.4637 4.5 7.75158V17.1794C4.5 21.6682 6.91321 23.3187 13.9028 27.2573C14.2279 27.4324 14.528 27.495 14.728 27.495ZM9.08885 15.4788C9.08885 15.3288 9.16387 15.1412 9.30142 14.9787L16.366 6.1136C16.9037 5.4384 17.804 5.88854 17.4789 6.72628L15.1532 12.9781H19.5169C19.8545 12.9781 20.1046 13.2156 20.1046 13.5533C20.1046 13.7034 20.0296 13.8909 19.8921 14.0534L12.8275 22.9186C12.2898 23.5938 11.402 23.1436 11.7146 22.3184L14.0528 16.054H9.67653C9.35144 16.054 9.08885 15.8164 9.08885 15.4788Z" fill="#9EFF00"/>
</svg>
