<svg width="127" height="50" viewBox="0 0 127 50" fill="none" xmlns="http://www.w3.org/2000/svg">
<g clip-path="url(#clip0_29_213)">
<path d="M40.1509 33.7806L41.6802 30.2061C43.3546 31.4462 45.5387 32.1025 47.7232 32.1025C49.3251 32.1025 50.3443 31.4827 50.3443 30.5345C50.3077 27.9083 40.697 29.9508 40.624 23.3481C40.5874 19.9924 43.5729 17.4027 47.7963 17.4027C50.3077 17.4027 52.8202 18.023 54.6037 19.4458L53.1747 23.0964C51.5337 22.0412 49.5068 21.3056 47.5775 21.3056C46.267 21.3056 45.393 21.9253 45.393 22.7283C45.4295 25.318 55.1138 23.8953 55.223 30.2061C55.223 33.6349 52.31 36.0424 48.1597 36.0424C45.1022 36.0424 42.2989 35.313 40.1504 33.7806H40.1509ZM101.045 28.9118C100.659 29.5977 100.097 30.1685 99.4178 30.5658C98.7384 30.9631 97.9655 31.1725 97.1784 31.1726C94.7255 31.1726 92.7373 29.1802 92.7373 26.7226C92.7373 24.2649 94.7255 22.2725 97.1784 22.2725C97.9655 22.2726 98.7384 22.482 99.4178 22.8793C100.097 23.2766 100.659 23.8474 101.045 24.5333L105.296 22.1733C103.704 19.3272 100.666 17.4027 97.1784 17.4027C92.0413 17.4027 87.8769 21.575 87.8769 26.7226C87.8769 31.8696 92.0413 36.0424 97.1784 36.0424C100.666 36.0424 103.704 34.1179 105.296 31.2718L101.045 28.9118ZM57.9818 35.6774H63.297V9.64453H57.9824L57.9818 35.6774ZM107.981 9.64453V35.6774H113.296V27.878L119.594 35.6774H126.388L118.379 26.4119L125.805 17.7661H119.303L113.296 24.9541V9.64453H107.981ZM79.6723 17.7672V19.8833C78.7988 18.424 76.6508 17.4027 74.3936 17.4027C69.7337 17.4027 66.0569 21.5248 66.0569 26.7043C66.0569 31.8837 69.7337 36.0424 74.3936 36.0424C76.6508 36.0424 78.7988 35.0211 79.6723 33.5618V35.6774H84.9875V17.7672H79.6723ZM79.6723 28.9478C78.9079 30.2244 77.306 31.1721 75.5225 31.1721C73.069 31.1721 71.0808 29.1802 71.0808 26.7226C71.0808 24.2649 73.069 22.2725 75.5225 22.2725C77.306 22.2725 78.9079 23.2572 79.6723 24.5699V28.9478Z" fill="#E6E6E6"/>
<path d="M12.082 9.06641C10.3595 9.06641 8.96334 10.4657 8.96334 12.1913C8.96292 12.6012 9.04326 13.0073 9.19977 13.3862C9.35627 13.7651 9.58587 14.1095 9.87546 14.3996C10.1651 14.6898 10.509 14.9201 10.8876 15.0774C11.2661 15.2346 11.672 15.3158 12.082 15.3162H15.2011V12.1913C15.2018 11.3633 14.8736 10.5689 14.2886 9.98293C13.7037 9.39692 12.9099 9.06724 12.082 9.06641ZM12.082 17.3994H3.76511C2.04263 17.3994 0.646484 18.7987 0.646484 20.5248C0.646484 22.2505 2.04263 23.6497 3.76511 23.6497H12.0825C13.8044 23.6497 15.2011 22.2505 15.2011 20.5248C15.2011 18.7987 13.8044 17.3994 12.082 17.3994Z" fill="#E6E6E6"/>
<path d="M31.8339 20.5248C31.8339 18.7987 30.4372 17.3994 28.7148 17.3994C26.9923 17.3994 25.5961 18.7987 25.5961 20.5248V23.6497H28.7148C29.5428 23.6489 30.3365 23.3192 30.9215 22.7332C31.5064 22.1472 31.8346 21.3528 31.8339 20.5248ZM23.5171 20.5248V12.1913C23.5178 11.3633 23.1895 10.5689 22.6046 9.98293C22.0197 9.39691 21.2259 9.06724 20.3979 9.06641C18.6754 9.06641 17.2793 10.4657 17.2793 12.1913V20.5243C17.2793 22.251 18.6754 23.6503 20.3979 23.6503C21.2259 23.6494 22.0197 23.3197 22.6046 22.7337C23.1895 22.1477 23.5178 21.3534 23.5171 20.5254" fill="#E6E6E6"/>
<path d="M20.3979 40.3177C21.2259 40.3169 22.0197 39.9872 22.6046 39.4012C23.1895 38.8152 23.5178 38.0208 23.5171 37.1928C23.5178 36.3648 23.1895 35.5705 22.6046 34.9844C22.0197 34.3984 21.2259 34.0687 20.3979 34.0679H17.2793V37.1928C17.2793 38.9184 18.6754 40.3177 20.3979 40.3177ZM20.3979 31.9847H28.7153C30.4372 31.9847 31.8339 30.5854 31.8339 28.8592C31.8346 28.0313 31.5064 27.2369 30.9215 26.6509C30.3365 26.0649 29.5428 25.7352 28.7148 25.7344H20.3979C18.6754 25.7344 17.2793 27.1336 17.2793 28.8592C17.2789 29.2692 17.3592 29.6752 17.5157 30.0541C17.6722 30.433 17.9018 30.7774 18.1914 31.0676C18.481 31.3578 18.8249 31.588 19.2035 31.7453C19.5821 31.9026 19.988 31.9837 20.3979 31.9841" fill="#E6E6E6"/>
<path d="M0.646486 28.8592C0.646074 29.2692 0.726413 29.6752 0.882916 30.0541C1.03942 30.433 1.26902 30.7774 1.55861 31.0676C1.8482 31.3578 2.19211 31.588 2.5707 31.7453C2.94929 31.9026 3.35515 31.9837 3.76511 31.9841C4.5931 31.9833 5.38685 31.6536 5.97179 31.0676C6.55673 30.4816 6.88495 29.6872 6.88425 28.8592V25.7344H3.76511C2.04263 25.7344 0.646486 27.1336 0.646486 28.8592ZM8.96334 28.8592V37.1923C8.96334 38.9184 10.3595 40.3177 12.082 40.3177C12.9099 40.3169 13.7037 39.9872 14.2886 39.4012C14.8736 38.8152 15.2018 38.0208 15.2011 37.1928V28.8592C15.2015 28.4492 15.1212 28.0432 14.9646 27.6642C14.8081 27.2853 14.5784 26.9409 14.2888 26.6507C13.9991 26.3606 13.6552 26.1303 13.2765 25.973C12.8979 25.8158 12.492 25.7347 12.082 25.7344C10.3595 25.7344 8.96334 27.1336 8.96334 28.8592Z" fill="#E6E6E6"/>
</g>
<defs>
<clipPath id="clip0_29_213">
<rect width="126.042" height="50" fill="white" transform="translate(0.645996)"/>
</clipPath>
</defs>
</svg>
