<svg width="146" height="44" viewBox="0 0 146 44" fill="none" xmlns="http://www.w3.org/2000/svg">
<path d="M22.0361 0.207031C9.95486 0.207031 0.160645 10.001 0.160645 22.0822C0.160645 34.1639 9.95486 43.957 22.0361 43.957C34.1186 43.957 43.9117 34.1639 43.9117 22.0822C43.9117 10.0018 34.1186 0.208076 22.0358 0.208076L22.0361 0.207031ZM32.068 31.7572C31.6761 32.3999 30.835 32.6036 30.1924 32.2092C25.0563 29.0719 18.5906 28.3614 10.976 30.1011C10.2422 30.2683 9.51078 29.8085 9.3436 29.0745C9.17563 28.3405 9.63355 27.6091 10.3692 27.4419C18.7021 25.5381 25.8499 26.3578 31.6161 29.8817C32.2587 30.2761 32.4624 31.1146 32.068 31.7572ZM34.7455 25.8009C34.2518 26.6034 33.2017 26.8568 32.3997 26.363C26.5196 22.7488 17.5564 21.7021 10.6014 23.8133C9.69938 24.0857 8.74671 23.5774 8.47295 22.677C8.20128 21.775 8.70988 20.8241 9.61031 20.5498C17.5548 18.1393 27.4313 19.307 34.1839 23.4564C34.9858 23.9501 35.2392 25.0003 34.7455 25.8012V25.8009ZM34.9754 19.5985C27.925 15.4109 16.2929 15.0258 9.56146 17.0688C8.48053 17.3967 7.33742 16.7864 7.00985 15.7055C6.68228 14.6241 7.29197 13.4817 8.37369 13.1531C16.1009 10.8074 28.9464 11.2606 37.0636 16.0793C38.0379 16.6564 38.3566 17.912 37.7793 18.883C37.2046 19.8553 35.9455 20.1758 34.9764 19.5985H34.9754ZM59.6764 20.4009C55.8991 19.5003 55.2278 18.8681 55.2278 17.5398C55.2278 16.2849 56.4085 15.4404 58.1665 15.4404C59.8697 15.4404 61.5572 16.0817 63.3283 17.4019C63.3805 17.4418 63.4484 17.4578 63.5137 17.4473C63.5816 17.4374 63.6391 17.4011 63.6783 17.3465L65.5225 14.7468C65.5983 14.6397 65.5774 14.4921 65.4755 14.4104C63.3674 12.7195 60.9956 11.8974 58.2214 11.8974C54.1437 11.8974 51.2938 14.3448 51.2938 17.8465C51.2938 21.6015 53.7519 22.9311 57.9994 23.9575C61.612 24.79 62.2233 25.4874 62.2233 26.734C62.2233 28.1158 60.9903 28.9752 59.0051 28.9752C56.8004 28.9752 55.0005 28.2308 52.9891 26.491C52.9395 26.4466 52.8716 26.4283 52.8089 26.431C52.741 26.4362 52.6809 26.4675 52.6391 26.5172L50.5702 28.9779C50.484 29.0823 50.4945 29.2339 50.5938 29.3227C52.9343 31.4124 55.8129 32.5148 58.9215 32.5148C63.3152 32.5148 66.1547 30.1142 66.1547 26.397C66.1625 23.2605 64.2843 21.5234 59.6842 20.4043L59.6764 20.4009ZM76.0967 16.6759C74.1924 16.6759 72.6303 17.4262 71.3399 18.9634V17.2331C71.3399 17.0965 71.2302 16.9852 71.0944 16.9852H67.7115C67.5757 16.9852 67.466 17.0965 67.466 17.2331V36.4592C67.466 36.5951 67.5757 36.7074 67.7115 36.7074H71.0944C71.2302 36.7074 71.3399 36.5951 71.3399 36.4592V30.3911C72.6303 31.8356 74.1924 32.5435 76.0967 32.5435C79.6363 32.5435 83.2202 29.819 83.2202 24.6105C83.2254 19.401 79.6415 16.6757 76.0993 16.6757L76.0967 16.6759ZM79.2862 24.6105C79.2862 27.2616 77.6536 29.1137 75.3131 29.1137C73.0013 29.1137 71.2563 27.1781 71.2563 24.6105C71.2563 22.0427 73.0013 20.1076 75.3131 20.1076C77.6144 20.1073 79.2862 22.0007 79.2862 24.6103V24.6105ZM92.4021 16.6759C87.8438 16.6759 84.2729 20.1857 84.2729 24.6672C84.2729 29.1006 87.8203 32.5723 92.3473 32.5723C96.9213 32.5723 100.503 29.0745 100.503 24.6105C100.503 20.1617 96.9448 16.6765 92.4021 16.6765V16.6759ZM92.4021 29.1398C89.978 29.1398 88.1495 27.1911 88.1495 24.6092C88.1495 22.0156 89.9153 20.1335 92.3473 20.1335C94.7871 20.1335 96.6261 22.0814 96.6261 24.6659C96.6261 27.259 94.8498 29.1398 92.4021 29.1398ZM110.236 16.9852H106.513V13.1803C106.513 13.0439 106.404 12.9327 106.268 12.9327H102.885C102.749 12.9327 102.637 13.0439 102.637 13.1803V16.9852H101.012C100.876 16.9852 100.766 17.0965 100.766 17.2331V20.1397C100.766 20.2761 100.876 20.3876 101.012 20.3876H102.637V27.9095C102.637 30.9475 104.149 32.4887 107.135 32.4887C108.347 32.4887 109.353 32.2379 110.301 31.6998C110.379 31.658 110.426 31.5744 110.426 31.4856V28.7166C110.426 28.6331 110.382 28.5521 110.309 28.5077C110.236 28.4606 110.144 28.458 110.068 28.4972C109.418 28.8237 108.789 28.9752 108.083 28.9752C106.999 28.9752 106.513 28.4815 106.513 27.3792V20.3889H110.236C110.372 20.3889 110.481 20.2776 110.481 20.141V17.2347C110.486 17.0981 110.377 16.9868 110.238 16.9868L110.236 16.9852ZM123.203 17.0001V16.5328C123.203 15.158 123.73 14.5449 124.911 14.5449C125.616 14.5449 126.183 14.6849 126.818 14.8965C126.896 14.9211 126.977 14.9088 127.04 14.862C127.105 14.8153 127.142 14.7403 127.142 14.6609V11.811C127.142 11.702 127.074 11.6057 126.967 11.5735C126.298 11.3742 125.441 11.1697 124.156 11.1697C121.035 11.1697 119.381 12.9287 119.381 16.2549V16.9706H117.756C117.62 16.9706 117.508 17.0819 117.508 17.2182V20.1397C117.508 20.2761 117.62 20.3876 117.756 20.3876H119.381V31.9871C119.381 32.1256 119.493 32.2353 119.629 32.2353H123.009C123.148 32.2353 123.258 32.1256 123.258 31.9871V20.3884H126.416L131.253 31.9871C130.705 33.2044 130.164 33.4473 129.428 33.4473C128.832 33.4473 128.202 33.2697 127.562 32.9171C127.502 32.8857 127.429 32.8805 127.367 32.8988C127.301 32.9223 127.246 32.9693 127.22 33.032L126.073 35.5476C126.019 35.6677 126.066 35.8062 126.181 35.8689C127.377 36.5167 128.456 36.7936 129.791 36.7936C132.288 36.7936 133.67 35.6285 134.884 32.4991L140.751 17.3387C140.783 17.2624 140.772 17.1762 140.725 17.1085C140.681 17.0414 140.605 17.0009 140.524 17.0009H137.003C136.896 17.0009 136.802 17.068 136.768 17.167L133.16 27.468L129.211 17.1602C129.174 17.0644 129.083 17.0009 128.981 17.0009H123.203V17.0001ZM115.685 16.9852H112.302C112.166 16.9852 112.054 17.0965 112.054 17.2331V31.9871C112.054 32.1256 112.166 32.2353 112.302 32.2353H115.685C115.821 32.2353 115.933 32.1256 115.933 31.9871V17.2342C115.933 17.0976 115.823 16.9863 115.685 16.9863V16.9852ZM114.013 10.2669C112.673 10.2669 111.586 11.3515 111.586 12.6913C111.586 14.0319 112.673 15.1178 114.013 15.1178C115.353 15.1178 116.437 14.0319 116.437 12.6913C116.437 11.3517 115.35 10.2669 114.013 10.2669ZM143.641 21.7293C142.303 21.7293 141.261 20.6543 141.261 19.349C141.261 18.0437 142.316 16.9565 143.654 16.9565C144.991 16.9565 146.033 18.0312 146.033 19.3354C146.033 20.6407 144.978 21.7293 143.641 21.7293ZM143.654 17.1932C142.434 17.1932 141.512 18.1623 141.512 19.349C141.512 20.5352 142.429 21.4913 143.641 21.4913C144.86 21.4913 145.783 20.5229 145.783 19.3354C145.783 18.1492 144.866 17.1932 143.654 17.1932ZM144.181 19.5802L144.855 20.5227H144.286L143.68 19.658H143.16V20.5227H142.685V18.0244H143.797C144.38 18.0244 144.761 18.3214 144.761 18.8213C144.764 19.2309 144.526 19.4812 144.184 19.5802H144.181ZM143.779 18.453H143.16V19.2432H143.779C144.087 19.2432 144.273 19.092 144.273 18.8477C144.273 18.5907 144.087 18.453 143.779 18.453Z" fill="#E6E6E6"/>
</svg>
