<svg width="100" height="46" viewBox="0 0 100 46" fill="none" xmlns="http://www.w3.org/2000/svg">
<path d="M0.667969 35.8698L10.933 19.8971H1.884C1.80731 19.437 1.77445 18.9331 1.77445 18.3744C1.77445 17.8375 1.80731 17.3446 1.884 16.8954H16.5311L16.7174 17.3884L6.37563 33.394H16.071C16.1477 33.8979 16.1806 34.4238 16.1806 34.9496C16.1806 35.4535 16.1477 35.9356 16.071 36.3957H0.854207L0.667969 35.8698Z" fill="#E6E6E6"/>
<path d="M30.2909 23.5454C30.2909 22.0446 29.9075 21.0148 29.1516 20.4232C28.3957 19.8426 27.2892 19.5468 25.8431 19.5468C24.9558 19.5468 24.1232 19.6125 23.3563 19.7549C22.5785 19.8973 21.8335 20.0726 21.0886 20.3027C20.6065 19.4701 20.3655 18.4622 20.3655 17.301C21.231 17.0271 22.1731 16.808 23.2139 16.6546C24.2546 16.5012 25.2515 16.4245 26.2156 16.4245C28.7463 16.4245 30.6744 17.0052 32 18.1555C33.3146 19.3058 33.9829 21.1572 33.9829 23.6878V35.892C33.0955 36.0892 32.0219 36.3083 30.7511 36.5164C29.4803 36.7355 28.1875 36.8341 26.8729 36.8341C25.635 36.8341 24.5066 36.7246 23.5097 36.4945C22.5127 36.2644 21.6582 35.9029 20.9571 35.388C20.256 34.8841 19.7192 34.2377 19.3357 33.4489C18.9523 32.6602 18.7661 31.7071 18.7661 30.6006C18.7661 29.516 18.9852 28.552 19.4343 27.7303C19.8725 26.9087 20.4751 26.2185 21.2419 25.6817C21.9978 25.1339 22.8743 24.7286 23.8712 24.4657C24.8572 24.2027 25.8979 24.0603 26.9934 24.0603C27.8041 24.0603 28.4724 24.0822 28.9873 24.1151C29.5022 24.148 29.9404 24.2027 30.3019 24.2466V23.5454H30.2909ZM30.2909 27.2373C29.9075 27.1826 29.4255 27.1387 28.8449 27.084C28.2642 27.0292 27.7712 27.0073 27.3659 27.0073C25.7883 27.0073 24.5942 27.3031 23.7726 27.8837C22.9509 28.4643 22.5347 29.3517 22.5347 30.5458C22.5347 31.3017 22.6771 31.9043 22.951 32.3315C23.2248 32.7588 23.5754 33.0874 23.9917 33.3175C24.408 33.5475 24.8681 33.69 25.383 33.7338C25.8869 33.7886 26.369 33.8105 26.8291 33.8105C27.4097 33.8105 28.0123 33.7776 28.6367 33.7119C29.2612 33.6461 29.8089 33.5585 30.2909 33.427V27.2373Z" fill="#E6E6E6"/>
<path d="M38.091 16.8962C38.3429 16.8414 38.6059 16.8086 38.8688 16.7867C39.1317 16.7648 39.4056 16.7538 39.6904 16.7538C39.9424 16.7538 40.2053 16.7648 40.4902 16.7867C40.764 16.8086 41.0379 16.8524 41.2899 16.8962C41.3118 16.951 41.3447 17.1044 41.3885 17.3673C41.4214 17.6302 41.4652 17.9151 41.498 18.2218C41.5309 18.5286 41.5747 18.8134 41.6076 19.0982C41.6405 19.3831 41.6624 19.5583 41.6624 19.635C41.9143 19.2297 42.2211 18.8353 42.5717 18.4519C42.9222 18.0684 43.3495 17.7288 43.8425 17.4221C44.3354 17.1153 44.8942 16.8743 45.5186 16.699C46.1431 16.5237 46.8332 16.4361 47.5891 16.4361C48.7285 16.4361 49.7911 16.6223 50.7662 17.0058C51.7412 17.3892 52.5738 17.9698 53.2749 18.7696C53.976 19.5693 54.5128 20.5881 54.9072 21.8151C55.3016 23.0421 55.4988 24.4991 55.4988 26.1753C55.4988 29.5276 54.5895 32.1459 52.7819 34.0302C50.9633 35.9145 48.3998 36.8676 45.0804 36.8676C44.5217 36.8676 43.952 36.8347 43.3714 36.758C42.7908 36.6814 42.2759 36.5828 41.8486 36.4513V45.3908C41.5419 45.4455 41.2242 45.4784 40.8736 45.5003C40.534 45.5222 40.2163 45.5332 39.9424 45.5332C39.6685 45.5332 39.3508 45.5222 39.0112 45.5003C38.6716 45.4784 38.3539 45.4346 38.08 45.3908V16.8962H38.091ZM41.8596 33.2086C42.3416 33.3838 42.8346 33.5153 43.3385 33.592C43.8425 33.6687 44.4998 33.7015 45.3214 33.7015C46.2307 33.7015 47.0742 33.5591 47.8302 33.2633C48.5861 32.9675 49.2434 32.5184 49.7911 31.9158C50.3389 31.3023 50.7662 30.5355 51.0839 29.6152C51.4016 28.695 51.5549 27.5885 51.5549 26.3287C51.5549 24.302 51.1825 22.6915 50.4375 21.4974C49.6925 20.3033 48.4656 19.7117 46.7675 19.7117C46.1321 19.7117 45.5296 19.8213 44.938 20.0513C44.3574 20.2814 43.8315 20.621 43.3823 21.0811C42.9222 21.5412 42.5607 22.1109 42.2759 22.812C41.991 23.5132 41.8596 24.3348 41.8596 25.2989V33.2086Z" fill="#E6E6E6"/>
<path d="M60.1876 19.8533H57.7117C57.657 19.6452 57.6241 19.4151 57.6022 19.1522C57.5803 18.8892 57.5693 18.6263 57.5693 18.3744C57.5693 18.1224 57.5803 17.8595 57.6022 17.5965C57.6241 17.3336 57.6679 17.0926 57.7117 16.8954H63.8795V36.4066C63.6056 36.4614 63.2879 36.4943 62.9483 36.5162C62.6087 36.5381 62.291 36.5491 62.0171 36.5491C61.7652 36.5491 61.4694 36.5381 61.1188 36.5162C60.7792 36.4943 60.4615 36.4505 60.1876 36.4066V19.8533Z" fill="#E6E6E6"/>
<path d="M71.9754 27.5772C72.0302 29.7025 72.5779 31.2691 73.6297 32.2551C74.6814 33.2411 76.237 33.7341 78.2856 33.7341C80.0823 33.7341 81.8022 33.4164 83.4236 32.781C83.6318 33.1644 83.7961 33.6245 83.9166 34.1723C84.0481 34.72 84.1138 35.2568 84.1467 35.7936C83.3141 36.1442 82.3938 36.4181 81.3859 36.5934C80.389 36.7687 79.2716 36.8563 78.0556 36.8563C76.2808 36.8563 74.758 36.6043 73.4872 36.1113C72.2164 35.6184 71.1757 34.9172 70.354 34.0189C69.5324 33.1206 68.9299 32.0579 68.5464 30.82C68.163 29.593 67.9768 28.2455 67.9768 26.7665C67.9768 25.3204 68.163 23.973 68.5245 22.7131C68.886 21.4533 69.4557 20.3687 70.2116 19.4375C70.9675 18.5173 71.9316 17.7723 73.0819 17.2355C74.2322 16.6877 75.6016 16.4139 77.1682 16.4139C78.5157 16.4139 79.6879 16.6439 80.7067 17.104C81.7255 17.5642 82.5691 18.1886 83.2593 18.9883C83.9385 19.7881 84.4644 20.7412 84.8149 21.8367C85.1655 22.9432 85.3517 24.1373 85.3517 25.43C85.3517 25.7806 85.3408 26.164 85.3079 26.5474C85.286 26.9418 85.2531 27.2814 85.2312 27.5553H71.9754V27.5772ZM81.6379 24.7617C81.6379 24.0496 81.5393 23.3704 81.3531 22.7241C81.1668 22.0777 80.882 21.519 80.5205 21.037C80.148 20.5549 79.6879 20.1715 79.1182 19.8757C78.5485 19.5799 77.8693 19.4375 77.0805 19.4375C75.5359 19.4375 74.3527 19.9086 73.5201 20.8398C72.6985 21.7819 72.1945 23.0856 72.0192 24.7617H81.6379Z" fill="#E6E6E6"/>
<path d="M89.5148 16.8954C89.7887 16.8406 90.0626 16.8078 90.3145 16.7858C90.5665 16.7639 90.8294 16.753 91.1143 16.753C91.3881 16.753 91.673 16.7639 91.9468 16.7858C92.2207 16.8078 92.4836 16.8516 92.7028 16.8954C92.7794 17.2788 92.8561 17.7718 92.9328 18.3963C93.0095 19.0207 93.0424 19.5466 93.0424 19.9738C93.5792 19.1084 94.2803 18.3634 95.1567 17.728C96.0331 17.0926 97.1506 16.7749 98.52 16.7749C98.7281 16.7749 98.9363 16.7858 99.1444 16.7968C99.3635 16.8078 99.5388 16.8297 99.6922 16.8516C99.747 17.0816 99.7798 17.3227 99.8017 17.5746C99.8236 17.8266 99.8346 18.0895 99.8346 18.3744C99.8346 18.6811 99.8127 18.9988 99.7798 19.3275C99.747 19.6561 99.6922 19.9738 99.6484 20.2806C99.4402 20.2258 99.2321 20.2039 99.0239 20.2039C98.8048 20.2039 98.6405 20.2039 98.509 20.2039C97.8298 20.2039 97.1725 20.3025 96.548 20.4887C95.9236 20.675 95.3649 21.0146 94.8719 21.4966C94.3789 21.9786 93.9845 22.6359 93.6887 23.4795C93.3929 24.3121 93.2505 25.3967 93.2505 26.7113V36.4067C92.9766 36.4614 92.6589 36.4943 92.3193 36.5162C91.9797 36.5381 91.662 36.5491 91.3881 36.5491C91.1143 36.5491 90.7965 36.5381 90.4569 36.5162C90.1173 36.4943 89.7887 36.4505 89.4819 36.4067V16.8954H89.5148Z" fill="#E6E6E6"/>
<path d="M67.4617 5.41476H63.7808L66.3881 2.80741C66.18 2.52258 65.9499 2.2487 65.7089 1.99673C65.4569 1.74476 65.194 1.5147 64.8982 1.3175L62.2909 3.92485V0.243892C61.9513 0.189116 61.6007 0.15625 61.2392 0.15625H61.2282C60.8667 0.15625 60.5161 0.189116 60.1765 0.243892V3.92485L57.5692 1.3175C57.2843 1.52565 57.0105 1.75571 56.7585 1.99673C56.5065 2.2487 56.2874 2.51162 56.0793 2.80741L58.6976 5.41476H55.0166C55.0166 5.41476 54.929 6.10493 54.929 6.46646C54.929 6.82798 54.9618 7.17855 55.0166 7.51816H58.6976L56.0902 10.1255C56.4956 10.6952 56.9995 11.1991 57.5801 11.6154L60.1875 9.00807V12.689C60.5271 12.7438 60.8776 12.7767 61.2392 12.7767H61.2501C61.6116 12.7767 61.9622 12.7438 62.3018 12.689V9.00807L64.9092 11.6154C65.194 11.4073 65.4679 11.1772 65.7198 10.9362C65.9718 10.6842 66.2019 10.4213 66.3991 10.1255L63.7917 7.51816H67.4727C67.5275 7.17855 67.5603 6.82798 67.5603 6.46646V6.4555C67.5494 6.10493 67.5275 5.75437 67.4617 5.41476ZM62.8167 6.47741C62.8167 6.94849 62.7291 7.39765 62.5757 7.81395C62.1594 7.96732 61.7102 8.05496 61.2392 8.05496C60.7681 8.05496 60.3189 7.96732 59.9026 7.81395C59.7493 7.39765 59.6616 6.94849 59.6616 6.47741V6.46646C59.6616 5.99538 59.7493 5.54622 59.9026 5.12992C60.3189 4.97655 60.7681 4.88891 61.2392 4.88891C61.7102 4.88891 62.1594 4.97655 62.5757 5.12992C62.7291 5.54622 62.8167 5.99538 62.8167 6.47741Z" fill="#E6E6E6"/>
</svg>
