<svg width="103" height="50" viewBox="0 0 103 50" fill="none" xmlns="http://www.w3.org/2000/svg">
<g clip-path="url(#clip0_29_210)">
<path fill-rule="evenodd" clip-rule="evenodd" d="M83.3196 21.4581C83.7094 22.1306 83.837 22.8958 83.8791 23.756L83.9344 24.9025V32.92L83.991 34.0678C84.1041 35.9422 85.4864 37.3282 87.3753 37.4461L88.517 37.5026V24.9025L88.5736 23.756C88.6205 22.9054 88.7468 22.1258 89.1427 21.4484C89.546 20.7537 90.125 20.1773 90.8216 19.7771C91.5181 19.3769 92.3077 19.167 93.111 19.1684C93.9144 19.1699 94.7032 19.3827 95.3983 19.7854C96.0934 20.1881 96.6703 20.7667 97.0711 21.4629C97.4609 22.1354 97.5824 22.915 97.6293 23.756L97.6859 24.8989V32.92L97.7424 34.0678C97.8603 35.9518 99.2319 37.3378 101.127 37.4461L102.268 37.5026V23.756C102.268 21.3252 101.303 18.9939 99.5846 17.2748C97.8661 15.5556 95.5352 14.5893 93.1045 14.5883C91.8034 14.587 90.5171 14.8633 89.3314 15.3987C88.1457 15.9342 87.0879 16.7166 86.2287 17.6936C85.3692 16.717 84.3113 15.9348 83.1257 15.3992C81.9401 14.8635 80.654 14.5867 79.353 14.5871C77.4497 14.5871 75.6836 15.1646 74.2206 16.162C73.3279 15.1658 71.3307 14.5871 70.1842 14.5871V37.5026L71.3307 37.4461C73.2485 37.3197 74.6345 35.9711 74.7091 34.0678L74.7704 32.92V24.9025L74.827 23.756C74.8751 22.8909 74.9954 22.1306 75.3864 21.4532C75.7901 20.7589 76.3688 20.1826 77.0649 19.782C77.7609 19.3813 78.5499 19.1702 79.353 19.1698C80.1568 19.1699 80.9464 19.3814 81.6426 19.7831C82.3388 20.1847 82.9171 20.7623 83.3196 21.4581ZM4.87387 37.4473L6.02043 37.5026H23.2067L23.1502 36.3597C22.995 34.4756 21.6607 33.0993 19.7707 32.9765L18.6241 32.92H8.31354L22.0602 19.1686L22.0036 18.0268C21.9146 16.1235 20.5238 14.7484 18.6241 14.6437L17.4776 14.592L0.29126 14.5871L0.347806 15.7337C0.498193 17.5997 1.85168 19.0049 3.72611 19.1132L4.87387 19.1698H15.1844L1.43781 32.9212L1.49436 34.0678C1.60745 35.9566 2.97057 37.3246 4.87387 37.4461V37.4473ZM65.6858 17.9414C66.7499 19.0053 67.5941 20.2684 68.17 21.6587C68.7459 23.0489 69.0424 24.5389 69.0424 26.0437C69.0424 27.5485 68.7459 29.0385 68.17 30.4287C67.5941 31.8189 66.7499 33.082 65.6858 34.146C63.5359 36.2942 60.621 37.5009 57.5817 37.5009C54.5425 37.5009 51.6276 36.2942 49.4776 34.146C45.0033 29.6716 45.0033 22.4157 49.4776 17.9414C50.5408 16.8778 51.8031 16.0341 53.1923 15.4584C54.5816 14.8826 56.0707 14.5862 57.5745 14.5859C59.0808 14.5849 60.5725 14.8808 61.9643 15.4568C63.3561 16.0328 64.6207 16.8775 65.6858 17.9426V17.9414ZM62.4434 21.1862C63.7322 22.4759 64.4562 24.2246 64.4562 26.0479C64.4562 27.8712 63.7322 29.6199 62.4434 30.9096C61.1537 32.1984 59.405 32.9223 57.5817 32.9223C55.7584 32.9223 54.0097 32.1984 52.72 30.9096C51.4312 29.6199 50.7073 27.8712 50.7073 26.0479C50.7073 24.2246 51.4312 22.4759 52.72 21.1862C54.0097 19.8974 55.7584 19.1734 57.5817 19.1734C59.405 19.1734 61.1537 19.8974 62.4434 21.1862ZM33.5269 14.5859C35.0308 14.5863 36.52 14.883 37.9092 15.4589C39.2985 16.0348 40.5607 16.8788 41.6238 17.9426C46.0993 22.4157 46.0993 29.6728 41.6238 34.146C39.4738 36.2942 36.5589 37.5009 33.5197 37.5009C30.4805 37.5009 27.5656 36.2942 25.4156 34.146C20.9413 29.6716 20.9413 22.4157 25.4156 17.9414C26.4788 16.8778 27.741 16.0341 29.1303 15.4584C30.5196 14.8826 32.0086 14.5862 33.5125 14.5859H33.5269ZM38.3814 21.1837C39.6706 22.4735 40.3947 24.2225 40.3947 26.0461C40.3947 27.8697 39.6706 29.6186 38.3814 30.9084C37.0917 32.1972 35.343 32.9211 33.5197 32.9211C31.6964 32.9211 29.9477 32.1972 28.658 30.9084C27.3692 29.6187 26.6453 27.87 26.6453 26.0467C26.6453 24.2234 27.3692 22.4747 28.658 21.1849C29.9477 19.8962 31.6964 19.1722 33.5197 19.1722C35.343 19.1722 37.0917 19.8962 38.3814 21.1849V21.1837Z" fill="#E6E6E6"/>
</g>
<defs>
<clipPath id="clip0_29_210">
<rect width="102.083" height="50" fill="white" transform="translate(0.291504)"/>
</clipPath>
</defs>
</svg>
