<svg width="41" height="40" viewBox="0 0 41 40" fill="none" xmlns="http://www.w3.org/2000/svg">
<path d="M12.7937 26.8917C12.258 26.3393 11.3037 26.3393 10.7345 26.8917L7.28585 30.3237C6.7334 30.8762 6.7334 31.8303 7.26911 32.3829C7.82157 32.9353 8.77581 32.952 9.34501 32.3996L12.7937 28.9509C13.3629 28.3984 13.3629 27.461 12.7937 26.8917ZM9.76354 19.5926C9.76354 18.8059 9.09388 18.1362 8.29031 18.1362H3.38518C2.59835 18.1362 1.92871 18.8059 1.92871 19.5926C1.92871 20.3794 2.59835 21.0492 3.38518 21.0492H8.29031C9.09388 21.0492 9.76354 20.3794 9.76354 19.5926ZM12.6263 12.1429C13.1955 11.5904 13.1955 10.6529 12.6263 10.0837L9.19434 6.63506C8.64188 6.0826 7.70438 6.06586 7.13518 6.61832C6.58273 7.17077 6.58273 8.10827 7.13518 8.67747L10.5671 12.1429C11.1363 12.7121 12.0738 12.7121 12.6263 12.1429ZM20.0927 9.22993C20.8963 9.22993 21.566 8.56029 21.566 7.77346V2.88506C21.566 2.09823 20.8963 1.42859 20.0927 1.42859C19.306 1.42859 18.6363 2.09823 18.6363 2.88506V7.77346C18.6363 8.56029 19.306 9.22993 20.0927 9.22993ZM27.3751 12.3103C27.9443 12.8795 28.8986 12.8795 29.451 12.3103L32.8997 8.86162C33.4689 8.29243 33.4689 7.35493 32.8997 6.78573C32.3473 6.23327 31.4097 6.23327 30.8573 6.78573L27.3751 10.2511C26.8227 10.8203 26.8227 11.7578 27.3751 12.3103ZM30.4556 19.5926C30.4556 20.3794 31.1251 21.0492 31.912 21.0492H36.8004C37.604 21.0492 38.2736 20.3794 38.2736 19.5926C38.2736 18.8059 37.604 18.1362 36.8004 18.1362H31.912C31.1251 18.1362 30.4556 18.8059 30.4556 19.5926ZM18.7703 31.2277C18.7534 31.8806 19.5069 32.0814 19.9421 31.663L22.4867 29.1016L25.3494 36.183C25.4834 36.4844 25.8183 36.6517 26.1196 36.5179L27.7937 35.865C28.095 35.7143 28.2121 35.3627 28.0616 35.0614L25.0481 28.0972L28.6641 27.9464C29.2836 27.913 29.6017 27.3103 29.1497 26.8247L19.9923 17.433C19.5739 16.9977 18.9376 17.2322 18.9209 17.8516L18.7703 31.2277Z" fill="#9EFF00"/>
</svg>
