<svg width="41" height="40" viewBox="0 0 41 40" fill="none" xmlns="http://www.w3.org/2000/svg">
<path fill-rule="evenodd" clip-rule="evenodd" d="M4.5 10C4.5 7.23858 6.73858 5 9.5 5H32C34.7614 5 37 7.23858 37 10V30C37 32.7614 34.7614 35 32 35H9.5C6.73858 35 4.5 32.7614 4.5 30V10ZM11.1161 11.6161C11.6043 11.128 12.3957 11.128 12.8839 11.6161L16.6339 15.3661C17.122 15.8543 17.122 16.6457 16.6339 17.1339L12.8839 20.8839C12.3957 21.372 11.6043 21.372 11.1161 20.8839C10.628 20.3957 10.628 19.6043 11.1161 19.1161L13.9822 16.25L11.1161 13.3839C10.628 12.8957 10.628 12.1043 11.1161 11.6161ZM18.25 18.75C17.5596 18.75 17 19.3096 17 20C17 20.6904 17.5596 21.25 18.25 21.25H23.25C23.9404 21.25 24.5 20.6904 24.5 20C24.5 19.3096 23.9404 18.75 23.25 18.75H18.25Z" fill="#9EFF00"/>
</svg>
