<svg width="40" height="40" viewBox="0 0 40 40" fill="none" xmlns="http://www.w3.org/2000/svg">
<path d="M4.28613 13.3259C4.28613 14.7991 5.85979 15.1674 6.79729 14.2132L14.2136 6.79686C15.1846 5.84262 14.7995 4.28571 13.3263 4.28571H5.80958C4.87207 4.28571 4.28613 4.92187 4.28613 5.82588V13.3259ZM8.60533 10.7143L29.8163 31.942L31.9424 29.8493L10.7314 8.60491L8.60533 10.7143ZM36.2783 27.2377C36.2783 25.7477 34.7047 25.3961 33.7504 26.3337L26.3341 33.75C25.3798 34.721 25.765 36.2779 27.2381 36.2779H34.7548C35.6924 36.2779 36.2783 35.625 36.2783 34.7377V27.2377ZM36.2783 13.3259V5.82588C36.2783 4.92187 35.6924 4.28571 34.7548 4.28571H27.2381C25.765 4.28571 25.3798 5.84262 26.3341 6.79686L33.7504 14.2132C34.7047 15.1674 36.2783 14.7991 36.2783 13.3259ZM10.7314 31.942L31.9591 10.7143L29.833 8.60491L8.60533 29.8326L10.7314 31.942ZM4.28613 27.2377V34.7377C4.28613 35.625 4.87207 36.2779 5.80958 36.2779H13.3263C14.7995 36.2779 15.1846 34.721 14.2136 33.75L6.79729 26.3337C5.85979 25.3961 4.28613 25.7477 4.28613 27.2377Z" fill="#9EFF00"/>
</svg>
