<svg width="40" height="40" viewBox="0 0 40 40" fill="none" xmlns="http://www.w3.org/2000/svg">
<g clip-path="url(#clip0_77_29510)">
<path d="M7.12639 29.866L8.48242 32.1763L20.4189 26.183L32.3551 32.1763L33.7113 29.866L21.7749 23.8727V9.74329H19.0796V23.8727L7.12639 29.866ZM2.8909 32.26C2.8909 32.9464 3.1755 33.4487 3.77818 33.7834L7.12639 35.7421C7.56167 36.01 7.86301 36.0603 8.44894 35.7254L11.7135 33.8337C12.3161 33.4988 12.4333 33.2143 12.4166 32.6618L12.4333 28.7778C12.4333 28.1083 12.132 27.6227 11.5628 27.288L8.19782 25.3293C7.76255 25.0948 7.39425 25.0111 6.82505 25.3293L3.51032 27.2544C2.94113 27.5726 2.85742 27.9074 2.85742 28.3761L2.8909 32.26ZM28.3206 32.6786C28.3039 33.231 28.421 33.5156 29.0237 33.8504L32.2883 35.7421C32.8741 36.077 33.1756 36.0268 33.6107 35.7589L36.959 33.8003C37.5617 33.4654 37.8463 32.9631 37.8463 32.2768L37.8797 28.3928C37.8797 27.9241 37.796 27.5893 37.2269 27.2711L33.9121 25.346C33.3429 25.0278 32.9746 25.1116 32.5393 25.346L29.1744 27.3047C28.6051 27.6396 28.3039 28.125 28.3039 28.7946L28.3206 32.6786ZM16.1498 12.606L19.5316 14.548C20.1007 14.8661 20.6531 14.8661 21.2224 14.548L24.6041 12.606C25.0729 12.3382 25.2737 12.087 25.2737 11.4007V7.61718C25.2737 6.94753 25.0729 6.71316 24.6376 6.46205L21.2558 4.53682C20.6531 4.202 20.084 4.202 19.498 4.53682L16.1164 6.46205C15.6978 6.69642 15.4635 6.94753 15.4635 7.61718V11.4007C15.4635 12.087 15.7146 12.3549 16.1498 12.606Z" fill="#9EFF00"/>
</g>
<defs>
<clipPath id="clip0_77_29510">
<rect width="35.0223" height="31.7579" fill="white" transform="translate(2.85742 4.28571)"/>
</clipPath>
</defs>
</svg>
