<svg width="41" height="40" viewBox="0 0 41 40" fill="none" xmlns="http://www.w3.org/2000/svg">
<path d="M2.309 37.9079C5.07127 40.6702 9.17284 40.7706 11.8849 37.5396C13.8771 35.1456 18.9161 27.0262 23.2353 22.7069C26.1149 19.8275 29.2956 21.3509 32.4931 20.0452L29.6471 9.66568C29.2956 8.37662 29.8146 7.30519 31.3046 6.90341L37.5824 5.22931C37.3816 4.64336 36.8291 3.83979 36.1427 3.13666C32.2756 -0.830969 25.8804 -0.881192 22.0634 2.73488C16.4887 8.04181 20.7241 13.6501 17.0579 17.3163C12.4373 21.9202 6.07574 25.2683 2.6773 28.3152C-0.503501 31.1445 -0.486759 35.1121 2.309 37.9079ZM7.04673 35.2293C5.90833 35.2293 4.97083 34.3085 4.97083 33.1702C4.97083 32.0318 5.90833 31.0942 7.04673 31.0942C8.18512 31.0942 9.10587 32.0318 9.10587 33.1702C9.10587 34.3085 8.18512 35.2293 7.04673 35.2293ZM22.7833 12.8632C22.415 12.9637 22.097 12.7795 21.9797 12.3777C21.8793 12.0764 22.0801 11.7081 22.4317 11.6076L26.3491 10.553C26.6673 10.4692 27.0356 10.6701 27.1193 11.0217C27.2364 11.4067 27.0189 11.7416 26.6673 11.842L22.7833 12.8632ZM23.2856 14.8553C22.9173 14.9559 22.5991 14.7718 22.4653 14.3699C22.3649 14.0686 22.5824 13.7003 22.934 13.6166L26.8347 12.5451C27.1527 12.4782 27.521 12.6623 27.6214 13.0139C27.7387 13.3989 27.5043 13.7338 27.1527 13.8342L23.2856 14.8553ZM23.771 16.8476C23.4194 16.9481 23.0511 16.7639 22.9843 16.3621C22.9006 16.0273 23.0847 15.7092 23.453 15.6088L27.3369 14.5708C27.7051 14.4536 28.0567 14.6712 28.1237 15.0061C28.2074 15.3409 28.0066 15.7092 27.6884 15.7929L23.771 16.8476ZM34.3347 19.2416C34.9876 18.8565 35.6571 18.3543 36.3436 17.7013C38.453 15.7929 39.5411 12.9134 39.1059 10.871L34.0333 12.2605C33.4641 12.4112 32.9786 12.4447 32.4597 12.361L34.3347 19.2416Z" fill="#9EFF00"/>
</svg>
