<svg width="41" height="40" viewBox="0 0 41 40" fill="none" xmlns="http://www.w3.org/2000/svg">
<path d="M26.5483 18.5C27.4888 18.5 28.2025 17.6344 27.8229 16.7739C26.5825 13.9624 23.7704 12 20.5 12C20.2075 12 19.9187 12.0157 19.6344 12.0463C18.6986 12.147 18.305 13.1981 18.7756 14.0132L20.933 17.75C21.201 18.2141 21.6962 18.5 22.2321 18.5L26.5483 18.5Z" fill="#9EFF00"/>
<path d="M16.179 15.5157C15.7082 14.7004 14.6005 14.5156 14.0439 15.2748C13.0732 16.5988 12.5 18.2325 12.5 20C12.5 21.7676 13.0732 23.4013 14.044 24.7253C14.6006 25.4845 15.7083 25.2997 16.179 24.4844L18.335 20.7501C18.603 20.286 18.603 19.7142 18.335 19.2501L16.179 15.5157Z" fill="#9EFF00"/>
<path d="M18.7757 25.9868C18.3051 26.8019 18.6987 27.8531 19.6345 27.9537C19.9188 27.9843 20.2076 28 20.5 28C23.7704 28 26.5825 26.0376 27.8229 23.2261C28.2025 22.3656 27.4888 21.5 26.5483 21.5H22.2322C21.6963 21.5 21.2011 21.7859 20.9332 22.25L18.7757 25.9868Z" fill="#9EFF00"/>
<path fill-rule="evenodd" clip-rule="evenodd" d="M28.7591 8.69449L30.0488 6.46055C30.463 5.74312 30.2172 4.82573 29.4998 4.41152C28.7824 3.9973 27.865 4.24312 27.4508 4.96055L26.1623 7.1923C24.8663 6.61853 23.467 6.23568 22 6.07942V3.5C22 2.67157 21.3284 2 20.5 2C19.6716 2 19 2.67157 19 3.5V6.07942C17.533 6.23568 16.1337 6.61854 14.8377 7.19231L13.5492 4.9606C13.135 4.24316 12.2176 3.99735 11.5002 4.41156C10.7828 4.82577 10.537 5.74316 10.9512 6.4606L12.2409 8.6945C11.0757 9.5472 10.0472 10.5757 9.19449 11.7409L6.96017 10.4509C6.24273 10.0367 5.32535 10.2825 4.91113 11C4.49692 11.7174 4.74273 12.6348 5.46017 13.049L7.69231 14.3377C7.11853 15.6337 6.73568 17.033 6.57941 18.5H4C3.17157 18.5 2.5 19.1716 2.5 20C2.5 20.8284 3.17157 21.5 4 21.5H6.57941C6.73568 22.967 7.11853 24.3663 7.69229 25.6622L5.46017 26.9509C4.74273 27.3651 4.49692 28.2825 4.91113 29C5.32535 29.7174 6.24273 29.9632 6.96017 29.549L9.19447 28.259C10.0471 29.4242 11.0755 30.4526 12.2406 31.3053L10.9508 33.5394C10.5365 34.2568 10.7824 35.1742 11.4998 35.5884C12.2172 36.0027 13.1346 35.7568 13.5488 35.0394L14.8374 32.8075C16.1334 33.3814 17.5329 33.7643 19 33.9206V36.5C19 37.3284 19.6716 38 20.5 38C21.3284 38 22 37.3284 22 36.5V33.9206C23.4671 33.7643 24.8666 33.3814 26.1626 32.8076L27.4512 35.0394C27.8654 35.7569 28.7828 36.0027 29.5002 35.5885C30.2176 35.1743 30.4635 34.2569 30.0492 33.5394L28.7594 31.3053C29.9245 30.4527 30.9528 29.4243 31.8054 28.2592L34.0395 29.549C34.7569 29.9632 35.6743 29.7174 36.0885 29C36.5028 28.2825 36.2569 27.3651 35.5395 26.9509L33.3076 25.6624C33.8814 24.3664 34.2643 22.9671 34.4206 21.5H37C37.8284 21.5 38.5 20.8284 38.5 20C38.5 19.1716 37.8284 18.5 37 18.5H34.4206C34.2643 17.0329 33.8814 15.6336 33.3076 14.3376L35.5395 13.049C36.2569 12.6348 36.5028 11.7174 36.0885 11C35.6743 10.2825 34.7569 10.0367 34.0395 10.4509L31.8054 11.7408C30.9527 10.5756 29.9243 9.54715 28.7591 8.69449ZM20.5 9C18.5224 9 16.6667 9.52187 15.0631 10.4354C15.0425 10.4486 15.0216 10.4614 15.0002 10.4737C14.9796 10.4857 14.9587 10.497 14.9378 10.5079C13.3134 11.4618 11.9555 12.8208 11.003 14.4461C10.9935 14.4642 10.9836 14.4821 10.9733 14.5C10.9626 14.5185 10.9516 14.5367 10.9402 14.5547C10.0237 16.1602 9.5 18.0189 9.5 20C9.5 21.9808 10.0236 23.8394 10.9399 25.4448C10.9514 25.4629 10.9625 25.4813 10.9733 25.5C10.9837 25.518 10.9937 25.5361 11.0032 25.5543C11.9564 27.1805 13.3153 28.5401 14.941 29.494C14.9607 29.5043 14.9803 29.515 14.9998 29.5263C15.02 29.5379 15.0398 29.55 15.0593 29.5625C16.6638 30.4773 18.5208 31 20.5 31C22.4794 31 24.3367 30.4772 25.9414 29.5621C25.9606 29.5498 25.9802 29.5378 26.0002 29.5263C26.0195 29.5152 26.0389 29.5046 26.0584 29.4944C27.6827 28.5414 29.0407 27.1835 29.9938 25.5593C30.0042 25.5394 30.015 25.5196 30.0264 25.5C30.0381 25.4796 30.0503 25.4596 30.0628 25.44C30.9775 23.8357 31.5 21.9789 31.5 20C31.5 18.0209 30.9774 16.1639 30.0626 14.5595C30.0501 14.54 30.038 14.5202 30.0264 14.5C30.0151 14.4805 30.0044 14.4609 29.9941 14.4411C29.0416 12.8178 27.6846 11.4605 26.0616 10.5075C26.0408 10.4968 26.0202 10.4855 25.9998 10.4737C25.9786 10.4615 25.9579 10.4488 25.9376 10.4358C24.3338 9.522 22.4779 9 20.5 9Z" fill="#9EFF00"/>
</svg>
