<svg width="41" height="40" viewBox="0 0 41 40" fill="none" xmlns="http://www.w3.org/2000/svg">
<g clip-path="url(#clip0_83_29604)">
<path d="M14.3852 36.1385C14.6865 36.1385 14.9042 35.9207 14.9544 35.6027C15.4901 31.1329 15.7077 31.0156 20.2613 30.279C20.6129 30.212 20.8304 30.0446 20.8304 29.7099C20.8304 29.3918 20.6129 29.1909 20.3283 29.1406C15.7412 28.2702 15.4901 28.2869 14.9544 23.817C14.9042 23.4989 14.6865 23.2813 14.3852 23.2813C14.0671 23.2813 13.8495 23.4989 13.816 23.8003C13.2301 28.337 13.0794 28.4877 8.44211 29.1406C8.15751 29.1742 7.93987 29.3918 7.93987 29.7099C7.93987 30.0279 8.15751 30.212 8.44211 30.279C13.0794 31.1663 13.2133 31.1663 13.816 35.6362C13.8495 35.9207 14.0671 36.1385 14.3852 36.1385ZM6.43317 21.5569C6.66755 21.5569 6.80148 21.3896 6.8517 21.1719C7.4209 17.9912 7.43764 17.7902 10.8026 17.221C11.0202 17.1707 11.1876 17.0369 11.1876 16.8025C11.1876 16.5681 11.0202 16.4174 10.8026 16.384C7.43764 15.798 7.4209 15.5971 6.8517 12.4163C6.80148 12.1987 6.66755 12.048 6.43317 12.048C6.1988 12.048 6.06487 12.1987 6.01465 12.4163C5.44545 15.5971 5.42871 15.798 2.06376 16.384C1.84612 16.4174 1.67871 16.5681 1.67871 16.8025C1.67871 17.0369 1.84612 17.1707 2.06376 17.221C5.42871 17.7902 5.44545 17.9912 6.01465 21.1719C6.06487 21.3896 6.1988 21.5569 6.43317 21.5569ZM15.6073 10.8427C15.8082 10.8427 15.9086 10.7255 15.9421 10.5413C16.5113 7.86276 16.4779 7.76231 19.2903 7.19312C19.4744 7.15964 19.6084 7.04245 19.6084 6.85829C19.6084 6.65741 19.4744 6.54021 19.2903 6.50673C16.4779 5.93753 16.5113 5.83709 15.9421 3.17526C15.9086 2.99111 15.8082 2.85718 15.6073 2.85718C15.4064 2.85718 15.3059 2.99111 15.2725 3.17526C14.7033 5.83709 14.7367 5.93753 11.9243 6.50673C11.7401 6.54021 11.6062 6.65741 11.6062 6.85829C11.6062 7.04245 11.7401 7.15964 11.9243 7.19312C14.7367 7.76231 14.7033 7.86276 15.2725 10.5413C15.3059 10.7255 15.4064 10.8427 15.6073 10.8427ZM29.4354 16.7523C29.6699 16.7523 29.8037 16.6016 29.854 16.384C30.4231 13.2032 30.4399 13.0023 33.8049 12.4163C34.0391 12.3828 34.1899 12.2322 34.1899 11.9978C34.1899 11.7634 34.0391 11.6295 33.8049 11.5793C30.4399 11.0101 30.4231 10.8092 29.854 7.62838C29.8037 7.41075 29.6699 7.24334 29.4354 7.24334C29.201 7.24334 29.0671 7.41075 29.0169 7.62838C28.4477 10.8092 28.431 11.0101 25.066 11.5793C24.8484 11.6295 24.681 11.7634 24.681 11.9978C24.681 12.2322 24.8484 12.3828 25.066 12.4163C28.431 13.0023 28.4477 13.2032 29.0169 16.384C29.0671 16.6016 29.201 16.7523 29.4354 16.7523ZM35.027 35.8706C35.73 36.5905 36.9354 36.5905 37.605 35.8706C38.2914 35.134 38.2914 33.9956 37.605 33.2925L21.6843 17.3215C20.9811 16.6183 19.7759 16.6183 19.1061 17.3215C18.403 18.058 18.4199 19.2132 19.1061 19.9163L35.027 35.8706ZM25.2836 24.3695L20.3784 19.4476C20.0771 19.1462 19.9767 18.8115 20.278 18.5269C20.5291 18.2589 20.8807 18.3259 21.1989 18.644L26.1207 23.5659L25.2836 24.3695Z" fill="#9EFF00"/>
</g>
<defs>
<clipPath id="clip0_83_29604">
<rect width="36.4411" height="33.6329" fill="white" transform="translate(1.67871 2.85718)"/>
</clipPath>
</defs>
</svg>
