<svg width="41" height="40" viewBox="0 0 41 40" fill="none" xmlns="http://www.w3.org/2000/svg">
<path d="M25.8405 34.4432H35.7963C37.9863 34.4432 39.4508 33.0458 39.4508 30.9499V9.49326C39.4508 7.3973 37.9863 6 35.7963 6H25.8405C23.6505 6 22.1726 7.3973 22.1726 9.49326V30.9499C22.1726 33.0458 23.6505 34.4432 25.8405 34.4432ZM26.1092 32.2801C24.9807 32.2801 24.3358 31.6754 24.3358 30.6005V9.84258C24.3358 8.76773 24.9807 8.16313 26.1092 8.16313H35.5142C36.6428 8.16313 37.2876 8.76773 37.2876 9.84258V30.6005C37.2876 31.6754 36.6428 32.2801 35.5142 32.2801H26.1092ZM4.19577 31.2455C4.89442 31.2455 5.39154 30.7619 5.39154 30.0632V28.0209C5.39154 23.023 8.44141 21.4106 12.3512 21.4106H13.2379L16.9596 21.2897V20.5373L13.3051 23.8693L11.8272 25.1323C11.5182 25.3876 11.4376 25.7234 11.4376 26.0459C11.4376 26.7043 11.9481 27.2014 12.6065 27.2014C12.9289 27.2014 13.2111 27.0804 13.5066 26.7983L19.1899 21.1285C19.4586 20.8733 19.6064 20.5642 19.6064 20.2283C19.6064 19.8924 19.4586 19.5834 19.1899 19.3281L13.4798 13.6314C13.2111 13.3627 12.9289 13.2552 12.6065 13.2552C11.9481 13.2552 11.4376 13.7389 11.4376 14.4107C11.4376 14.7331 11.5182 15.069 11.8272 15.3243L13.3051 16.5873L16.9596 19.9193V19.1669L13.2379 19.046H12.3512C7.58153 19.046 3 21.236 3 28.0209V30.0632C3 30.7619 3.49712 31.2455 4.19577 31.2455Z" fill="#9EFF00"/>
</svg>
