<svg width="40" height="40" viewBox="0 0 40 40" fill="none" xmlns="http://www.w3.org/2000/svg">
<g clip-path="url(#clip0_77_29485)">
<path d="M7.40399 36.0752C8.52842 36.0752 9.42472 35.1789 9.42472 34.0545C9.42472 32.93 8.51213 32.0338 7.40399 32.0338C6.27956 32.0338 5.38328 32.9463 5.38328 34.0545C5.38328 35.1952 6.29586 36.0752 7.40399 36.0752ZM2.28701 23.6738C3.41145 23.6738 4.30773 22.745 4.30773 21.6368C4.30773 20.4961 3.37885 19.6161 2.28701 19.6161C1.16258 19.6161 0.25 20.5287 0.25 21.6368C0.25 22.7613 1.17888 23.6738 2.28701 23.6738ZM7.40399 11.2725C8.52842 11.2725 9.42472 10.3599 9.42472 9.25177C9.42472 8.11104 8.51213 7.23105 7.40399 7.23105C6.27956 7.23105 5.38328 8.12734 5.38328 9.25177C5.38328 10.3762 6.29586 11.2725 7.40399 11.2725ZM19.9031 6.05773C21.0275 6.05773 21.9238 5.14515 21.9238 4.02071C21.9238 2.89629 21.0113 2 19.9031 2C18.7624 2 17.8824 2.91258 17.8824 4.02071C17.8824 5.16145 18.7787 6.05773 19.9031 6.05773ZM32.386 11.2399C33.5104 11.2399 34.4067 10.3273 34.4067 9.21918C34.4067 8.07845 33.494 7.19846 32.386 7.19846C31.2453 7.19846 30.3489 8.09474 30.3489 9.21918C30.3489 10.3436 31.2615 11.2399 32.386 11.2399ZM37.5192 23.6738C38.6437 23.6738 39.5562 22.745 39.5562 21.6368C39.5562 20.4961 38.6274 19.6161 37.5192 19.6161C36.3785 19.6161 35.4821 20.5287 35.4821 21.6368C35.4821 22.7613 36.4111 23.6738 37.5192 23.6738ZM32.3697 36.0914C33.494 36.0914 34.3904 35.1952 34.3904 34.0708C34.3904 32.9463 33.4777 32.0501 32.3697 32.0501C31.2288 32.0501 30.3326 32.9626 30.3326 34.0708C30.3326 35.2115 31.2453 36.0914 32.3697 36.0914ZM19.9031 33.5003C26.4378 33.5003 31.7503 28.2042 31.7503 21.6368C31.7503 15.5095 27.0897 10.474 21.109 9.87103L21.0928 21.8813C21.0928 22.5331 20.5223 23.1035 19.9031 23.0872C19.1861 23.0545 18.6809 22.5493 18.6809 21.8486V9.87103C12.7165 10.474 8.03954 15.5095 8.03954 21.6368C8.03954 28.2205 13.3684 33.5003 19.9031 33.5003Z" fill="#9EFF00"/>
</g>
<defs>
<clipPath id="clip0_77_29485">
<rect width="39.3062" height="36.65" fill="white" transform="translate(0.25 2)"/>
</clipPath>
</defs>
</svg>
