<svg width="41" height="40" viewBox="0 0 41 40" fill="none" xmlns="http://www.w3.org/2000/svg">
<g clip-path="url(#clip0_77_29565)">
<path d="M5.05331 31.2533H36.3758C39.0727 31.2533 40.4291 29.9758 40.4291 27.2V9.12566C40.4291 6.36563 39.0727 5.08813 36.3758 5.08813H5.05331C2.35636 5.08813 1 6.36563 1 9.12566V27.2C1 29.9758 2.35636 31.2533 5.05331 31.2533ZM12.7814 36.5999H28.6477C29.3416 36.5999 29.9252 36.0321 29.9252 35.3223C29.9252 34.6126 29.3416 34.0448 28.6477 34.0448H12.7814C12.0874 34.0448 11.5039 34.6126 11.5039 35.3223C11.5039 36.0321 12.0874 36.5999 12.7814 36.5999ZM21.5346 24.708C21.1877 24.708 20.9668 24.503 20.9196 24.1718C20.2257 19.4245 19.6105 18.3679 14.6267 17.8632C14.2955 17.8158 14.0904 17.5792 14.0904 17.2638C14.0904 16.9642 14.2955 16.7118 14.6267 16.6645C19.5947 16.0021 20.0206 15.1347 20.9196 10.3401C20.9984 10.0246 21.2192 9.81962 21.5346 9.81962C21.8344 9.81962 22.0708 10.0404 22.1182 10.3559C22.828 15.0558 23.4745 16.0021 28.4268 16.6645C28.7423 16.7118 28.963 16.9642 28.963 17.2638C28.963 17.5792 28.7423 17.8158 28.4268 17.8632C23.4588 18.5256 23.0172 19.4245 22.1182 24.1876C22.0551 24.503 21.8344 24.708 21.5346 24.708ZM15.1314 27.3735C14.879 27.3735 14.7529 27.2 14.6741 26.9476C14.2008 24.6291 14.4059 24.5188 11.8509 24.1402C11.5828 24.093 11.4408 23.9352 11.4408 23.6829C11.4408 23.462 11.5828 23.2728 11.8193 23.2413C14.4059 22.8155 14.2008 22.705 14.6741 20.4024C14.7529 20.15 14.8948 19.9766 15.1314 19.9766C15.368 19.9766 15.5257 20.1658 15.5887 20.4024C16.0304 22.705 15.8727 22.8155 18.4592 23.2413C18.68 23.2728 18.8377 23.462 18.8377 23.6829C18.8377 23.9037 18.68 24.093 18.4592 24.1402C15.8727 24.5188 16.0304 24.6291 15.5887 26.9949C15.5257 27.2157 15.3522 27.3735 15.1314 27.3735Z" fill="#9EFF00"/>
</g>
<defs>
<clipPath id="clip0_77_29565">
<rect width="40" height="40" fill="white" transform="translate(0.75)"/>
</clipPath>
</defs>
</svg>
