<svg width="40" height="40" viewBox="0 0 40 40" fill="none" xmlns="http://www.w3.org/2000/svg">
<path d="M1.75 26.4542C1.75 26.7568 1.90134 27.1146 2.13523 27.3484L8.20262 33.5672C8.46404 33.8424 8.78047 33.98 9.12443 33.98C9.45463 33.98 9.77107 33.8424 10.0325 33.5672L16.1137 27.3484C16.3475 27.1146 16.4851 26.7568 16.4851 26.4542C16.4851 25.725 15.9898 25.2435 15.2743 25.2435C14.9166 25.2435 14.6415 25.3535 14.4351 25.5736L12.4402 27.6787L10.2113 30.2378L10.3489 27.0595V13.9204L10.2113 10.7422L12.4402 13.3013L14.4351 15.4063C14.6415 15.6264 14.9166 15.7365 15.2743 15.7365C15.9898 15.7365 16.4851 15.255 16.4851 14.5258C16.4851 14.2231 16.3475 13.8654 16.1137 13.6315L10.0325 7.41275C9.77107 7.13758 9.45463 7 9.12443 7C8.78047 7 8.46404 7.13758 8.20262 7.41275L2.13523 13.6315C1.90134 13.8654 1.75 14.2231 1.75 14.5258C1.75 15.255 2.2453 15.7365 2.96073 15.7365C3.31845 15.7365 3.60737 15.6127 3.79998 15.4063L5.80869 13.3013L8.02377 10.7422L7.88619 13.9204V27.0595L8.02377 30.2378L5.80869 27.6787L3.79998 25.5736C3.60737 25.3673 3.31845 25.2435 2.96073 25.2435C2.2453 25.2435 1.75 25.725 1.75 26.4542ZM19.1679 16.8509C19.1679 17.2499 19.4707 17.5663 19.8971 17.6214C26.3773 18.3506 27.3267 19.2586 28.1933 25.9451C28.2621 26.3579 28.5787 26.6331 28.9501 26.6331C29.3353 26.6331 29.6517 26.3579 29.7205 25.9451C30.5873 19.2586 31.5229 18.3506 38.003 17.6214C38.4433 17.5663 38.7322 17.2499 38.7322 16.8509C38.7322 16.4519 38.4433 16.1355 38.003 16.0805C31.5367 15.3513 30.5873 14.4295 29.7205 7.7567C29.6517 7.35772 29.3491 7.08255 28.9501 7.08255C28.5648 7.08255 28.2621 7.35772 28.1933 7.7567C27.2716 14.3882 26.3911 15.2137 19.8971 16.0805C19.4707 16.1355 19.1679 16.4519 19.1679 16.8509ZM17.861 28.8344C17.861 29.1095 18.0535 29.3434 18.3562 29.4122C21.8646 30.0726 21.9334 30.0314 22.3323 33.3333C22.3874 33.6497 22.6075 33.8836 22.9102 33.8836C23.2267 33.8836 23.4468 33.6635 23.5018 33.3471C23.942 29.8938 24.0934 29.8938 27.4504 29.4122C27.7669 29.3572 27.9732 29.1234 27.9732 28.8344C27.9732 28.5592 27.7807 28.3115 27.4642 28.2566C24.0522 27.5962 23.9559 27.6787 23.5018 24.3079C23.4468 24.0052 23.2128 23.7851 22.9102 23.7851C22.6075 23.7851 22.3874 24.019 22.3323 24.3354C21.9334 27.6374 21.8508 27.6924 18.4113 28.2566C18.0673 28.3115 17.861 28.5316 17.861 28.8344Z" fill="#9EFF00"/>
</svg>
