<svg width="41" height="40" viewBox="0 0 41 40" fill="none" xmlns="http://www.w3.org/2000/svg">
<path d="M4.84849 22.0257C5.81948 22.0257 6.58956 21.2556 6.58956 20.3013C6.58956 19.3303 5.81948 18.5603 4.84849 18.5603C3.87751 18.5603 3.10742 19.3303 3.10742 20.3013C3.10742 21.2556 3.87751 22.0257 4.84849 22.0257ZM8.79939 10.2902C9.77036 10.2902 10.5405 9.50338 10.5405 8.54915C10.5405 7.57816 9.77036 6.80806 8.79939 6.80806C7.84515 6.80806 7.05831 7.57816 7.05831 8.54915C7.05831 9.50338 7.84515 10.2902 8.79939 10.2902ZM20.5684 6.33932C21.5226 6.33932 22.2927 5.56923 22.2927 4.59825C22.2927 3.64401 21.5226 2.85718 20.5684 2.85718C19.5974 2.85718 18.8273 3.64401 18.8273 4.59825C18.8273 5.56923 19.5974 6.33932 20.5684 6.33932ZM32.3206 10.2902C33.2916 10.2902 34.0617 9.50338 34.0617 8.54915C34.0617 7.57816 33.2916 6.80806 32.3206 6.80806C31.3496 6.80806 30.5796 7.57816 30.5796 8.54915C30.5796 9.50338 31.3496 10.2902 32.3206 10.2902ZM36.2883 22.0257C37.2424 22.0257 38.0126 21.2556 38.0126 20.3013C38.0126 19.3303 37.2424 18.5603 36.2883 18.5603C35.3173 18.5603 34.5471 19.3303 34.5471 20.3013C34.5471 21.2556 35.3173 22.0257 36.2883 22.0257ZM33.4256 34.3472C34.1621 34.3472 34.7983 33.7445 34.7983 33.0079C34.7983 32.2545 34.1621 31.635 33.4256 31.635H31.3831V20.5357C31.3831 14.4253 26.6621 9.70428 20.5684 9.70428C14.4579 9.70428 9.77037 14.4253 9.77037 20.5357V31.635H7.69448C6.95786 31.635 6.37194 32.2545 6.37194 33.0079C6.37194 33.7445 6.95786 34.3472 7.69448 34.3472H33.4256ZM21.9746 20.586V31.635H19.1789V20.586C19.1789 19.8159 19.7983 19.1798 20.5684 19.1798C21.3384 19.1798 21.9746 19.8159 21.9746 20.586Z" fill="#9EFF00"/>
</svg>
