<svg width="40" height="40" viewBox="0 0 40 40" fill="none" xmlns="http://www.w3.org/2000/svg">
<g clip-path="url(#clip0_77_29560)">
<g clip-path="url(#clip1_77_29560)">
<path d="M5.99455 19.0495C6.35955 19.0074 6.7386 18.9793 7.10361 18.9793C7.49669 18.9793 7.87574 19.0074 8.25478 19.0635V16.0031H5.99455V19.0495ZM5.99455 14.0798H8.25478V11.1457C8.25478 9.68569 9.02692 8.94164 10.4308 8.94164H13.3368V6.6814H10.4027C7.46862 6.6814 5.99455 8.12739 5.99455 11.0334V14.0798ZM15.2601 8.94164H21.5915V6.6814H15.2601V8.94164ZM23.5009 8.94164H29.8323V6.6814H23.5009V8.94164ZM39.0979 14.0798V11.0334C39.0979 8.12739 37.6238 6.6814 34.6897 6.6814H31.7556V8.94164H34.6617C36.0656 8.94164 36.8377 9.68569 36.8377 11.1457V14.0798H39.0979ZM39.0979 23.2049V16.0031H36.8377V23.2049H39.0979ZM34.6897 32.5267C37.6238 32.5267 39.0979 31.0808 39.0979 28.1747V25.1283H36.8377V28.0624C36.8377 29.5225 36.0656 30.2665 34.6617 30.2665H31.7556V32.5267H34.6897ZM23.5009 32.5267H29.8323V30.2665H23.5009V32.5267ZM14.9793 32.5127L21.5915 32.5267V30.2665H15.8638C15.6812 31.0668 15.3865 31.8107 14.9793 32.5127ZM7.13168 35.18C11.0345 35.18 14.2633 31.9511 14.2633 28.0483C14.2633 24.1596 11.0204 20.9167 7.11765 20.9167C3.22891 20.9167 0 24.1596 0 28.0483C0 31.9511 3.24295 35.18 7.13168 35.18ZM7.13168 33.4954C4.11335 33.4954 1.69869 31.0668 1.69869 28.0483C1.69869 25.0441 4.11335 22.6013 7.11765 22.6013C10.136 22.6013 12.5647 25.0441 12.5787 28.0483C12.5927 31.0668 10.136 33.4954 7.13168 33.4954ZM7.11765 32.2741C9.44808 32.2741 11.3433 30.3647 11.3433 28.0624C11.3433 25.746 9.43404 23.8368 7.11765 23.8368C4.80125 23.8368 2.90602 25.746 2.90602 28.0624C2.90602 30.3647 4.81529 32.2741 7.11765 32.2741Z" fill="#9EFF00"/>
</g>
</g>
<defs>
<clipPath id="clip0_77_29560">
<rect width="40" height="40" fill="white"/>
</clipPath>
<clipPath id="clip1_77_29560">
<rect width="39.0979" height="31.18" fill="white" transform="translate(0 4)"/>
</clipPath>
</defs>
</svg>
