<svg width="40" height="40" viewBox="0 0 40 40" fill="none" xmlns="http://www.w3.org/2000/svg">
<path fill-rule="evenodd" clip-rule="evenodd" d="M12.5607 10.4393C13.1464 11.0251 13.1464 11.9749 12.5607 12.5607L5.12132 20L12.5607 27.4393C13.1464 28.0251 13.1464 28.9749 12.5607 29.5607C11.9749 30.1464 11.0251 30.1464 10.4393 29.5607L1.93934 21.0607C1.35355 20.4749 1.35355 19.5251 1.93934 18.9393L10.4393 10.4393C11.0251 9.85355 11.9749 9.85355 12.5607 10.4393ZM27.4393 10.4393C28.0251 9.85355 28.9749 9.85355 29.5607 10.4393L38.0607 18.9393C38.6464 19.5251 38.6464 20.4749 38.0607 21.0607L29.5607 29.5607C28.9749 30.1464 28.0251 30.1464 27.4393 29.5607C26.8536 28.9749 26.8536 28.0251 27.4393 27.4393L34.8787 20L27.4393 12.5607C26.8536 11.9749 26.8536 11.0251 27.4393 10.4393Z" fill="#9EFF00"/>
<path fill-rule="evenodd" clip-rule="evenodd" d="M22.7549 4.02181C23.5712 4.16257 24.1189 4.93848 23.9782 5.75486L18.9782 34.7549C18.8374 35.5712 18.0615 36.1189 17.2451 35.9782C16.4288 35.8374 15.8811 35.0615 16.0218 34.2451L21.0218 5.24514C21.1626 4.42876 21.9385 3.88105 22.7549 4.02181Z" fill="#9EFF00"/>
</svg>
