<svg width="41" height="40" viewBox="0 0 41 40" fill="none" xmlns="http://www.w3.org/2000/svg">
<path d="M34.2876 23.5155V10.7087C34.2876 8.95085 33.5342 8.38166 32.1112 7.79572C30.1357 6.99215 23.7574 4.56469 21.782 3.9955C21.3299 3.87831 20.8444 3.74438 20.3757 3.74438C19.907 3.74438 19.4215 3.84483 18.9862 3.9955C16.994 4.68188 10.6157 6.97541 8.64021 7.79572C7.23396 8.39841 6.46387 8.95085 6.46387 10.7087V23.5155C6.46387 29.6261 9.72838 31.8861 19.254 37.2265C19.6893 37.461 20.1078 37.5614 20.3757 37.5614C20.6436 37.5614 21.0789 37.461 21.4973 37.2265C31.0063 31.8694 34.2876 29.6261 34.2876 23.5155ZM20.0241 34.4643C19.8232 34.414 19.6056 34.2968 19.3378 34.1294C11.6201 29.4253 9.1257 28.0691 9.1257 22.8961V11.2277C9.1257 10.6585 9.22614 10.4241 9.6949 10.2567C12.2898 9.36938 17.1782 7.59484 19.7061 6.59036C19.84 6.54014 19.9404 6.50666 20.0241 6.48992V34.4643Z" fill="#9EFF00"/>
</svg>
