<svg width="40" height="40" viewBox="0 0 40 40" fill="none" xmlns="http://www.w3.org/2000/svg">
<path d="M14.3773 32.8476H28.7998C31.5947 32.8476 32.9922 31.4366 32.9922 28.5873V12.1297C32.9922 9.29408 31.5947 7.86947 28.7998 7.86947H15.8155L18.0406 10.0539H28.6777C30.0887 10.0539 30.8078 10.8001 30.8078 12.1569V28.5602C30.8078 29.917 30.0887 30.6632 28.6912 30.6632H14.4858C13.0884 30.6632 12.3557 29.917 12.3557 28.5602V18.8729H10.1713V28.5873C10.1713 31.4366 11.5823 32.8476 14.3773 32.8476ZM16.4396 15.8745H26.4255C26.9003 15.8745 27.2666 15.5081 27.2666 15.0332C27.2666 14.572 26.9003 14.2056 26.4255 14.2056H16.4396C15.9376 14.2056 15.5848 14.572 15.5848 15.0332C15.5848 15.5081 15.9376 15.8745 16.4396 15.8745ZM16.4396 21.193H26.4255C26.9003 21.193 27.2666 20.8131 27.2666 20.3382C27.2666 19.8769 26.9003 19.5241 26.4255 19.5241H16.4396C15.9376 19.5241 15.5848 19.8769 15.5848 20.3382C15.5848 20.8131 15.9376 21.193 16.4396 21.193ZM16.4396 26.4979H26.4255C26.9003 26.4979 27.2666 26.1452 27.2666 25.6839C27.2666 25.2091 26.9003 24.8291 26.4255 24.8291H16.4396C15.9376 24.8291 15.5848 25.2091 15.5848 25.6839C15.5848 26.1452 15.9376 26.4979 16.4396 26.4979ZM6.25022 13.3644C6.23665 13.88 6.86077 14.0564 7.19996 13.7172L9.27582 11.6413L11.5959 17.3668C11.7044 17.6247 11.9758 17.7468 12.22 17.6518L13.5768 17.1091C13.8074 17.0005 13.9024 16.7156 13.7803 16.4579L11.3517 10.8272L14.2687 10.7051C14.7843 10.678 15.0421 10.1896 14.6758 9.7961L7.25423 2.17104C6.91504 1.83184 6.38589 2.02179 6.37233 2.5238L6.25022 13.3644Z" fill="#9EFF00"/>
</svg>
