<svg width="40" height="40" viewBox="0 0 40 40" fill="none" xmlns="http://www.w3.org/2000/svg">
<path d="M1.5 20.2102C1.5 27.269 5.57303 33.4983 11.1389 36.5576C13.0741 37.645 14.6775 35.0648 12.5396 33.8301C7.91365 31.2498 4.65154 26.1263 4.65154 20.2102C4.65154 11.5113 11.5812 4.54471 20.2802 4.54471C28.9793 4.54471 35.9642 11.5113 35.9642 20.2102C35.9642 21.316 36.8119 21.8506 37.623 21.8506C38.3785 21.8506 39.0972 21.2976 39.0972 20.2102C39.0972 9.92628 30.5642 1.41161 20.2802 1.41161C10.0147 1.41161 1.5 9.92628 1.5 20.2102ZM8.94574 20.2102C8.94574 24.3202 11.1942 27.7666 13.885 29.4991C15.7464 30.7522 17.3498 28.2642 15.7833 27.1952C13.498 25.7024 11.9867 23.1406 11.9867 20.2102C11.9867 15.5659 15.6727 11.8799 20.2802 11.8799C24.8877 11.8799 28.4447 15.5474 28.6106 20.2102C28.6474 21.0581 29.2925 21.7214 30.1402 21.7214C30.9881 21.7214 31.6516 21.0581 31.6516 20.2102C31.6516 13.9809 26.5095 8.83891 20.2802 8.83891C14.0877 8.83891 8.94574 13.9809 8.94574 20.2102ZM19.5799 33.5536C19.5615 34.2724 20.4092 34.512 20.87 34.0512L23.6898 31.2314L26.8413 39.0088C26.9887 39.3591 27.3573 39.525 27.689 39.3959L29.5137 38.6588C29.8453 38.5112 29.9745 38.1242 29.8085 37.7741L26.5095 30.1072L30.4721 29.9597C31.1724 29.9229 31.5041 29.241 31.0065 28.725L20.9437 18.3672C20.4645 17.888 19.7642 18.1645 19.7458 18.8464L19.5799 33.5536Z" fill="#9EFF00"/>
</svg>
