<svg width="41" height="40" viewBox="0 0 41 40" fill="none" xmlns="http://www.w3.org/2000/svg">
<path d="M10.5 5C7.73858 5 5.5 7.23858 5.5 10V13.75C5.5 16.5114 7.73858 18.75 10.5 18.75H14.25C17.0114 18.75 19.25 16.5114 19.25 13.75V10C19.25 7.23858 17.0114 5 14.25 5H10.5Z" fill="#9EFF00"/>
<path d="M26.75 5C23.9886 5 21.75 7.23858 21.75 10V13.75C21.75 16.5114 23.9886 18.75 26.75 18.75H30.5C33.2614 18.75 35.5 16.5114 35.5 13.75V10C35.5 7.23858 33.2614 5 30.5 5H26.75Z" fill="#9EFF00"/>
<path d="M10.5 21.25C7.73858 21.25 5.5 23.4886 5.5 26.25V30C5.5 32.7614 7.73858 35 10.5 35H14.25C17.0114 35 19.25 32.7614 19.25 30V26.25C19.25 23.4886 17.0114 21.25 14.25 21.25H10.5Z" fill="#9EFF00"/>
<path d="M29.875 22.5C29.875 21.8096 29.3154 21.25 28.625 21.25C27.9346 21.25 27.375 21.8096 27.375 22.5V26.875H23C22.3096 26.875 21.75 27.4346 21.75 28.125C21.75 28.8154 22.3096 29.375 23 29.375H27.375V33.75C27.375 34.4404 27.9346 35 28.625 35C29.3154 35 29.875 34.4404 29.875 33.75V29.375H34.25C34.9404 29.375 35.5 28.8154 35.5 28.125C35.5 27.4346 34.9404 26.875 34.25 26.875H29.875V22.5Z" fill="#9EFF00"/>
</svg>
