<svg width="40" height="40" viewBox="0 0 40 40" fill="none" xmlns="http://www.w3.org/2000/svg">
<path d="M21.7174 6.51801C22.4805 6.51801 23.0611 5.93738 23.0611 5.17428C23.0611 4.42776 22.4805 3.84713 21.7174 3.84713H9.57401L12.2117 6.51801H21.7174ZM26.379 11.2626C27.1255 11.2626 27.7227 10.6653 27.7227 9.90223C27.7227 9.15571 27.1255 8.59167 26.379 8.59167H14.2024L16.8401 11.2626H26.379ZM30.941 15.9905C31.6876 15.9905 32.2683 15.3933 32.2683 14.6302C32.2683 13.8837 31.6876 13.3196 30.941 13.3196H18.8309L21.4685 15.9905H30.941ZM35.5529 18.0476H23.4593C24.4546 19.0595 24.9025 19.6733 24.9689 20.7185H35.5529C36.2994 20.7185 36.8966 20.1378 36.8966 19.3748C36.8966 18.6282 36.2994 18.0476 35.5529 18.0476ZM20.2077 34.4379L14.2522 20.5195L13.4559 21.8797L21.7174 22.3442C22.8289 22.4106 23.3598 21.2161 22.5635 20.4032L6.14002 3.61488C5.41009 2.86836 4.28202 3.28309 4.28202 4.32822L4 27.686C4 28.8306 5.27738 29.2952 6.00731 28.4491L11.3491 22.5432L9.80626 22.1452L15.5628 36.3788C15.795 36.9428 16.3756 37.2082 16.8899 36.9761L19.7433 35.7981C20.2741 35.5991 20.4566 34.9853 20.2077 34.4379Z" fill="#9EFF00"/>
</svg>
