<svg width="41" height="40" viewBox="0 0 41 40" fill="none" xmlns="http://www.w3.org/2000/svg">
<path d="M9.625 6.25C7.20875 6.25 5.25 8.20875 5.25 10.625C5.25 13.0412 7.20875 15 9.625 15H30.875C33.2912 15 35.25 13.0412 35.25 10.625C35.25 8.20875 33.2912 6.25 30.875 6.25H9.625Z" fill="#9EFF00"/>
<path d="M6.5 18.75C5.80964 18.75 5.25 19.3096 5.25 20C5.25 20.6904 5.80964 21.25 6.5 21.25H34C34.6904 21.25 35.25 20.6904 35.25 20C35.25 19.3096 34.6904 18.75 34 18.75H6.5Z" fill="#9EFF00"/>
<path d="M5.25 26.25C5.25 25.5596 5.80964 25 6.5 25H34C34.6904 25 35.25 25.5596 35.25 26.25C35.25 26.9404 34.6904 27.5 34 27.5H6.5C5.80964 27.5 5.25 26.9404 5.25 26.25Z" fill="#9EFF00"/>
<path d="M6.5 31.25C5.80964 31.25 5.25 31.8096 5.25 32.5C5.25 33.1904 5.80964 33.75 6.5 33.75H34C34.6904 33.75 35.25 33.1904 35.25 32.5C35.25 31.8096 34.6904 31.25 34 31.25H6.5Z" fill="#9EFF00"/>
</svg>
