<svg width="40" height="40" viewBox="0 0 40 40" fill="none" xmlns="http://www.w3.org/2000/svg">
<g clip-path="url(#clip0_77_29500)">
<path d="M5.72015 19.933C5.72015 18.4095 5.95452 16.9364 6.38979 15.5803L3.76144 14.4754C3.19224 16.1997 2.85742 18.0245 2.85742 19.933C2.85742 21.8247 3.19224 23.6663 3.77818 25.3905L6.38979 24.2857C5.95452 22.9297 5.72015 21.4564 5.72015 19.933ZM13.421 7.24327L12.3496 4.66515C9.03488 6.32252 6.30608 9.05132 4.64872 12.366L7.26032 13.4542C8.59961 10.7924 10.776 8.61605 13.421 7.24327ZM19.9166 5.7031C21.44 5.7031 22.9133 5.93747 24.3027 6.38949L25.3741 3.77788C23.6499 3.19194 21.8083 2.85712 19.9166 2.85712C18.0248 2.85712 16.1666 3.19194 14.4423 3.77788L15.5472 6.38949C16.9199 5.93747 18.3931 5.7031 19.9166 5.7031ZM32.6063 13.4375L35.2011 12.366C33.5271 9.05132 30.7983 6.32252 27.4836 4.64842L26.4121 7.24327C29.0571 8.5993 31.2503 10.7756 32.6063 13.4375ZM34.1633 19.933C34.1633 21.4564 33.9289 22.9297 33.4936 24.3024L36.0884 25.4074C36.6744 23.683 37.0091 21.8247 37.0091 19.933C37.0091 18.0245 36.6744 16.183 36.0884 14.4587L33.4769 15.5636C33.9289 16.9364 34.1633 18.4095 34.1633 19.933ZM26.4121 32.606L27.4836 35.2175C30.815 33.5435 33.5439 30.8147 35.1844 27.5L32.623 26.4285C31.267 29.0904 29.074 31.25 26.4121 32.606ZM19.9333 34.163C18.3931 34.163 16.9199 33.9285 15.5472 33.4765L14.459 36.0881C16.1833 36.6741 18.0416 37.0088 19.9333 37.0088C21.825 37.0088 23.6666 36.6741 25.3741 36.1048L24.286 33.4933C22.9133 33.9285 21.4567 34.163 19.9333 34.163ZM7.26032 26.4285L4.66545 27.5C6.33956 30.8147 9.03488 33.5435 12.3496 35.2008L13.421 32.5893C10.776 31.2333 8.59961 29.0737 7.26032 26.4285ZM19.8999 31.6183C26.4121 31.6183 31.6019 26.4285 31.5851 19.933C31.5684 13.4375 26.3786 8.24775 19.8831 8.24775C13.3876 8.24775 8.23131 13.4207 8.23131 19.933C8.23131 26.4453 13.4043 31.6183 19.8999 31.6183Z" fill="#9EFF00"/>
</g>
<defs>
<clipPath id="clip0_77_29500">
<rect width="34.1517" height="34.1686" fill="white" transform="translate(2.85742 2.85712)"/>
</clipPath>
</defs>
</svg>
