<svg width="40" height="40" viewBox="0 0 40 40" fill="none" xmlns="http://www.w3.org/2000/svg">
<path d="M5.71387 34.4866C5.71387 35.7924 5.99847 36.5793 7.23731 37.1819C10.1 38.4207 14.0509 39.2411 18.7886 39.2411C23.4762 39.2411 28.7496 38.538 32.533 36.6964C34.542 35.7421 35.0274 34.8549 35.0274 32.779V7.08147C35.0274 4.36941 33.8222 3.13059 31.2106 3.13059H29.6369V2.46094C29.6369 0.803571 28.7999 0 27.3266 0C26.8243 0 26.2217 0.117187 25.5019 0.351563C20.446 2.00893 15.8255 3.06361 9.89914 3.06361H8.55985C6.75181 3.06361 5.71387 4.1183 5.71387 5.75893V34.4866ZM11.657 15.7533V10.0949C11.657 9.86049 11.8244 9.6596 12.0587 9.64286C15.9594 9.49219 19.4416 8.8058 23.0074 7.5C23.2083 7.4163 23.5599 7.5 23.5599 7.90179V13.8114C23.5599 13.9621 23.4762 14.1127 23.3254 14.1629C20.2116 15.4353 16.1101 16.1551 12.0587 16.1551C11.8411 16.1551 11.657 16.0211 11.657 15.7533ZM12.5107 36.3783C19.09 36.1941 25.2004 34.3527 28.5152 31.8247C29.2853 31.2389 29.6369 30.6361 29.6369 29.163V5.82589H31.2273C31.9639 5.82589 32.3321 6.22769 32.3321 7.08147V32.5949C32.3321 33.5993 32.1814 33.9676 31.2273 34.3861C27.8957 35.8426 23.2083 36.7801 18.7886 36.7801C16.6793 36.7801 14.6871 36.663 12.5107 36.3783Z" fill="#9EFF00"/>
</svg>
