<svg width="40" height="40" viewBox="0 0 40 40" fill="none" xmlns="http://www.w3.org/2000/svg">
<path d="M10.3511 39.1462H29.0509C31.8299 39.1462 33.6882 37.3717 33.6882 34.7266V5.86497C33.6882 3.21989 31.8299 1.42859 29.0509 1.42859H10.3511C7.57212 1.42859 5.71387 3.21989 5.71387 5.86497V34.7266C5.71387 37.3717 7.57212 39.1462 10.3511 39.1462ZM10.686 36.4509C9.24624 36.4509 8.40918 35.6473 8.40918 34.2746V6.31699C8.40918 4.94422 9.24624 4.1239 10.686 4.1239H28.7162C30.1392 4.1239 30.9929 4.94422 30.9929 6.31699V34.2746C30.9929 35.6473 30.1392 36.4509 28.7162 36.4509H10.686ZM13.2808 16.8472H26.138C27.0253 16.8472 27.6279 16.2612 27.6279 15.3237V11.7076C27.6279 10.7701 27.0253 10.1842 26.138 10.1842H13.2808C12.3936 10.1842 11.7909 10.7701 11.7909 11.7076V15.3237C11.7909 16.2612 12.3936 16.8472 13.2808 16.8472ZM13.2808 30.3572H26.138C27.0253 30.3572 27.6279 29.7544 27.6279 28.8337V25.2009C27.6279 24.2802 27.0253 23.6774 26.138 23.6774H13.2808C12.3936 23.6774 11.7909 24.2802 11.7909 25.2009V28.8337C11.7909 29.7544 12.3936 30.3572 13.2808 30.3572Z" fill="#9EFF00"/>
</svg>
