<svg width="41" height="40" viewBox="0 0 41 40" fill="none" xmlns="http://www.w3.org/2000/svg">
<path d="M1.92871 34.1182C1.92871 34.9218 2.46443 35.4408 3.268 35.4408H36.566C37.3026 35.4408 37.922 34.8548 37.922 34.1015C37.922 33.365 37.3026 32.7622 36.566 32.7622H5.09277C4.74121 32.7622 4.62403 32.6451 4.62403 32.2935V5.82585C4.62403 5.10599 4.02134 4.48657 3.28474 4.48657C2.53139 4.48657 1.92871 5.10599 1.92871 5.82585V34.1182ZM3.68653 23.7054L14.451 17.4776L22.2021 24.1238L35.98 15.9207L34.9254 14.2131L22.3361 21.7131L14.6184 15.1004L3.68653 21.4118V23.7054ZM14.2334 19.7377C15.874 19.7377 17.2133 18.3984 17.2133 16.7578C17.2133 15.1171 15.874 13.7946 14.2334 13.7946C12.5928 13.7946 11.2535 15.1171 11.2535 16.7578C11.2535 18.3984 12.5928 19.7377 14.2334 19.7377ZM22.1351 25.8817C23.7759 25.8817 25.0984 24.5424 25.0984 22.9017C25.0984 21.2611 23.7759 19.9385 22.1351 19.9385C20.4946 19.9385 19.1553 21.2611 19.1553 22.9017C19.1553 24.5424 20.4946 25.8817 22.1351 25.8817ZM34.758 18.2645C36.3986 18.2645 37.7379 16.9252 37.7379 15.2846C37.7379 13.6439 36.3986 12.3047 34.758 12.3047C33.1173 12.3047 31.778 13.6439 31.778 15.2846C31.778 16.9252 33.1173 18.2645 34.758 18.2645Z" fill="#9EFF00"/>
</svg>
