<svg width="41" height="40" viewBox="0 0 41 40" fill="none" xmlns="http://www.w3.org/2000/svg">
<path d="M31.375 3.75C29.6491 3.75 28.25 5.14911 28.25 6.875V33.125C28.25 34.8509 29.6491 36.25 31.375 36.25H32.625C34.3509 36.25 35.75 34.8509 35.75 33.125V6.875C35.75 5.14911 34.3509 3.75 32.625 3.75H31.375Z" fill="#9EFF00"/>
<path d="M17 14.375C17 12.6491 18.3991 11.25 20.125 11.25H21.375C23.1009 11.25 24.5 12.6491 24.5 14.375V33.125C24.5 34.8509 23.1009 36.25 21.375 36.25H20.125C18.3991 36.25 17 34.8509 17 33.125V14.375Z" fill="#9EFF00"/>
<path d="M5.75 21.875C5.75 20.1491 7.14911 18.75 8.875 18.75H10.125C11.8509 18.75 13.25 20.1491 13.25 21.875V33.125C13.25 34.8509 11.8509 36.25 10.125 36.25H8.875C7.14911 36.25 5.75 34.8509 5.75 33.125V21.875Z" fill="#9EFF00"/>
</svg>
