<svg width="41" height="40" viewBox="0 0 41 40" fill="none" xmlns="http://www.w3.org/2000/svg">
<path fill-rule="evenodd" clip-rule="evenodd" d="M13 8.75C13 5.98858 15.2386 3.75 18 3.75H23C25.7614 3.75 28 5.98858 28 8.75V9.09163C29.5541 9.23389 31.0957 9.41994 32.6234 9.64853C35.0468 10.0111 36.75 12.1194 36.75 14.5095V19.5648C36.75 21.5834 35.5273 23.4854 33.5229 24.1518C29.4277 25.5133 25.0486 26.25 20.5001 26.25C15.9514 26.25 11.5724 25.5133 7.47711 24.1518C5.47273 23.4854 4.25 21.5833 4.25 19.5648V14.5095C4.25 12.1194 5.95318 10.0111 8.3766 9.64853C9.90434 9.41994 11.4459 9.2339 13 9.09163V8.75ZM25.5 8.75V8.90137C23.8461 8.80094 22.1789 8.75 20.5 8.75C18.8211 8.75 17.1539 8.80094 15.5 8.90137V8.75C15.5 7.36929 16.6193 6.25 18 6.25H23C24.3807 6.25 25.5 7.36929 25.5 8.75ZM20.5 22.5C21.1904 22.5 21.75 21.9404 21.75 21.25C21.75 20.5596 21.1904 20 20.5 20C19.8096 20 19.25 20.5596 19.25 21.25C19.25 21.9404 19.8096 22.5 20.5 22.5Z" fill="#9EFF00"/>
<path d="M5.5 30.6666V26.0065C5.87173 26.2104 6.26829 26.3844 6.68839 26.5241C11.0348 27.9691 15.68 28.75 20.5001 28.75C25.3201 28.75 29.9652 27.9691 34.3116 26.5241C34.7317 26.3845 35.1283 26.2105 35.5 26.0066V30.6666C35.5 33.0865 33.7546 35.2125 31.2948 35.5391C27.7626 36.008 24.1592 36.25 20.5 36.25C16.8408 36.25 13.2374 36.008 9.70522 35.5391C7.2454 35.2125 5.5 33.0865 5.5 30.6666Z" fill="#9EFF00"/>
</svg>
