<svg width="40" height="40" viewBox="0 0 40 40" fill="none" xmlns="http://www.w3.org/2000/svg">
<path fill-rule="evenodd" clip-rule="evenodd" d="M9.13021 9.26478C9.45297 8.21581 10.4221 7.5 11.5197 7.5H15C15.6904 7.5 16.25 6.94036 16.25 6.25C16.25 5.55964 15.6904 5 15 5H11.5197C9.32463 5 7.38629 6.43161 6.74076 8.52957L2.7211 21.5934C2.57453 22.0698 2.5 22.5655 2.5 23.0639V30C2.5 32.7614 4.73858 35 7.5 35H32.5C35.2614 35 37.5 32.7614 37.5 30V23.0639C37.5 22.5655 37.4255 22.0698 37.2789 21.5934L33.2592 8.52957C32.6137 6.43161 30.6754 5 28.4803 5H25C24.3096 5 23.75 5.55964 23.75 6.25C23.75 6.94036 24.3096 7.5 25 7.5H28.4803C29.5779 7.5 30.547 8.21581 30.8698 9.26478L34.5575 21.25H29.8176C27.9238 21.25 26.1925 22.32 25.3455 24.0139L24.9184 24.868C24.495 25.715 23.6293 26.25 22.6824 26.25H17.3176C16.3707 26.25 15.505 25.715 15.0816 24.868L14.6545 24.0139C13.8075 22.32 12.0762 21.25 10.1824 21.25H5.44245L9.13021 9.26478Z" fill="#9EFF00"/>
<path fill-rule="evenodd" clip-rule="evenodd" d="M20 3.75C20.6904 3.75 21.25 4.30964 21.25 5V15.7322L24.1161 12.8661C24.6043 12.378 25.3957 12.378 25.8839 12.8661C26.372 13.3543 26.372 14.1457 25.8839 14.6339L20.8839 19.6339C20.3957 20.122 19.6043 20.122 19.1161 19.6339L14.1161 14.6339C13.628 14.1457 13.628 13.3543 14.1161 12.8661C14.6043 12.378 15.3957 12.378 15.8839 12.8661L18.75 15.7322V5C18.75 4.30964 19.3096 3.75 20 3.75Z" fill="#9EFF00"/>
</svg>
