<svg width="41" height="40" viewBox="0 0 41 40" fill="none" xmlns="http://www.w3.org/2000/svg">
<path d="M7.06066 4.43934C6.47487 3.85355 5.52513 3.85355 4.93934 4.43934C4.35355 5.02513 4.35355 5.97487 4.93934 6.56066L11.3787 13H6C5.17157 13 4.5 13.6716 4.5 14.5C4.5 15.3284 5.17157 16 6 16H15C15.8284 16 16.5 15.3284 16.5 14.5V5.5C16.5 4.67157 15.8284 4 15 4C14.1716 4 13.5 4.67157 13.5 5.5V10.8787L7.06066 4.43934Z" fill="#9EFF00"/>
<path d="M27.5 5.5C27.5 4.67157 26.8284 4 26 4C25.1716 4 24.5 4.67157 24.5 5.5V14.5C24.5 15.3284 25.1716 16 26 16H35C35.8284 16 36.5 15.3284 36.5 14.5C36.5 13.6716 35.8284 13 35 13H29.6213L36.0607 6.56066C36.6464 5.97487 36.6464 5.02513 36.0607 4.43934C35.4749 3.85355 34.5251 3.85355 33.9393 4.43934L27.5 10.8787V5.5Z" fill="#9EFF00"/>
<path d="M7.06066 35.5607L13.5 29.1213V34.5C13.5 35.3284 14.1716 36 15 36C15.8284 36 16.5 35.3284 16.5 34.5V25.5C16.5 24.6716 15.8284 24 15 24H6C5.17157 24 4.5 24.6716 4.5 25.5C4.5 26.3284 5.17157 27 6 27H11.3787L4.93934 33.4393C4.35355 34.0251 4.35355 34.9749 4.93934 35.5607C5.52513 36.1464 6.47487 36.1464 7.06066 35.5607Z" fill="#9EFF00"/>
<path d="M27.5 29.1213L33.9393 35.5607C34.5251 36.1464 35.4749 36.1464 36.0607 35.5607C36.6464 34.9749 36.6464 34.0251 36.0607 33.4393L29.6213 27H35C35.8284 27 36.5 26.3284 36.5 25.5C36.5 24.6716 35.8284 24 35 24H26C25.1716 24 24.5 24.6716 24.5 25.5V34.5C24.5 35.3284 25.1716 36 26 36C26.8284 36 27.5 35.3284 27.5 34.5V29.1213Z" fill="#9EFF00"/>
</svg>
