<svg width="40" height="40" viewBox="0 0 40 40" fill="none" xmlns="http://www.w3.org/2000/svg">
<g clip-path="url(#clip0_77_29495)">
<path d="M4.46355 23.2701H14.57C16.9361 23.2701 18.3149 21.9225 18.3149 19.5879V9.48134C18.3149 7.14666 16.9361 5.79913 14.57 5.79913H4.46355C2.1132 5.79913 0.75 7.13099 0.75 9.48134V19.5879C0.75 21.9382 2.1132 23.2701 4.46355 23.2701ZM24.8332 23.4737H35.1435C37.5878 23.4737 38.9824 22.0949 38.9824 19.7132V9.37165C38.9824 6.9743 37.5878 5.59543 35.1435 5.59543H24.8332C22.4045 5.59543 21.0099 6.9743 21.0099 9.37165V19.7132C21.0099 22.0949 22.4045 23.4737 24.8332 23.4737ZM24.8646 20.998C23.9402 20.998 23.4857 20.5436 23.4857 19.6035V9.46566C23.4857 8.52553 23.9402 8.07114 24.8646 8.07114H35.1121C36.068 8.07114 36.5067 8.52553 36.5067 9.46566V19.6035C36.5067 20.5436 36.068 20.998 35.1121 20.998H24.8646ZM1.94084 29.1303C1.29841 29.1303 0.75 29.6944 0.75 30.3995C0.75 31.1045 1.29841 31.653 1.94084 31.653H7.00193V29.1303H1.94084ZM9.72833 34.16C11.7966 34.16 13.4889 32.4678 13.4889 30.3995C13.4889 28.3155 11.7966 26.6232 9.72833 26.6232C7.66003 26.6232 5.96777 28.3155 5.96777 30.3995C5.96777 32.4678 7.66003 34.16 9.72833 34.16ZM9.72833 32.2327C8.69418 32.2327 7.89506 31.4179 7.89506 30.3838C7.89506 29.3496 8.69418 28.5505 9.72833 28.5505C10.7468 28.5505 11.5616 29.3496 11.5616 30.3838C11.5616 31.4179 10.7468 32.2327 9.72833 32.2327ZM12.2197 29.1303V31.653H37.7131C38.4183 31.653 38.9824 31.1045 38.9824 30.3995C38.9824 29.6944 38.4183 29.1303 37.7131 29.1303H12.2197Z" fill="#9EFF00"/>
</g>
<defs>
<clipPath id="clip0_77_29495">
<rect width="38.2324" height="29.16" fill="white" transform="translate(0.75 5)"/>
</clipPath>
</defs>
</svg>
