<svg width="41" height="40" viewBox="0 0 41 40" fill="none" xmlns="http://www.w3.org/2000/svg">
<path d="M30.875 3.75C29.1491 3.75 27.75 5.14911 27.75 6.875V33.125C27.75 34.8509 29.1491 36.25 30.875 36.25H32.125C33.8509 36.25 35.25 34.8509 35.25 33.125V6.875C35.25 5.14911 33.8509 3.75 32.125 3.75H30.875Z" fill="#9EFF00"/>
<path d="M16.5 14.375C16.5 12.6491 17.8991 11.25 19.625 11.25H20.875C22.6009 11.25 24 12.6491 24 14.375V33.125C24 34.8509 22.6009 36.25 20.875 36.25H19.625C17.8991 36.25 16.5 34.8509 16.5 33.125V14.375Z" fill="#9EFF00"/>
<path d="M5.25 21.875C5.25 20.1491 6.64911 18.75 8.375 18.75H9.625C11.3509 18.75 12.75 20.1491 12.75 21.875V33.125C12.75 34.8509 11.3509 36.25 9.625 36.25H8.375C6.64911 36.25 5.25 34.8509 5.25 33.125V21.875Z" fill="#9EFF00"/>
</svg>
