<svg width="41" height="40" viewBox="0 0 41 40" fill="none" xmlns="http://www.w3.org/2000/svg">
<path d="M35.75 10.625C35.75 15.1123 29.0343 18.75 20.75 18.75C12.4657 18.75 5.75 15.1123 5.75 10.625C5.75 6.13769 12.4657 2.5 20.75 2.5C29.0343 2.5 35.75 6.13769 35.75 10.625Z" fill="#9EFF00"/>
<path d="M20.75 21.25C25.2253 21.25 29.4009 20.2728 32.5473 18.5685C33.6973 17.9456 34.7913 17.1739 35.7078 16.2612C35.7358 16.4638 35.75 16.6685 35.75 16.875C35.75 21.3623 29.0343 25 20.75 25C12.4657 25 5.75 21.3623 5.75 16.875C5.75 16.6685 5.76422 16.4638 5.79216 16.2612C6.70871 17.1739 7.8027 17.9456 8.95269 18.5685C12.0991 20.2728 16.2747 21.25 20.75 21.25Z" fill="#9EFF00"/>
<path d="M20.75 27.5C25.2253 27.5 29.4009 26.5228 32.5473 24.8185C33.6973 24.1956 34.7913 23.4239 35.7078 22.5112C35.7358 22.7138 35.75 22.9185 35.75 23.125C35.75 27.6123 29.0343 31.25 20.75 31.25C12.4657 31.25 5.75 27.6123 5.75 23.125C5.75 22.9185 5.76422 22.7138 5.79216 22.5112C6.70871 23.4239 7.8027 24.1956 8.95269 24.8185C12.0991 26.5228 16.2747 27.5 20.75 27.5Z" fill="#9EFF00"/>
<path d="M20.75 33.75C25.2253 33.75 29.4009 32.7728 32.5473 31.0685C33.6973 30.4456 34.7913 29.6739 35.7078 28.7612C35.7358 28.9638 35.75 29.1685 35.75 29.375C35.75 33.8623 29.0343 37.5 20.75 37.5C12.4657 37.5 5.75 33.8623 5.75 29.375C5.75 29.1685 5.76422 28.9638 5.79216 28.7612C6.70871 29.6739 7.8027 30.4456 8.95269 31.0685C12.0991 32.7728 16.2747 33.75 20.75 33.75Z" fill="#9EFF00"/>
</svg>
