<svg width="40" height="40" viewBox="0 0 40 40" fill="none" xmlns="http://www.w3.org/2000/svg">
<g clip-path="url(#clip0_77_29490)">
<path d="M10.0193 37.62C10.9055 37.62 11.3392 37.1487 11.4901 36.3755L15.2237 17.3681L13.338 18.8955H27.4051L25.5194 17.3681L29.253 36.3755C29.4039 37.1487 29.8375 37.62 30.7238 37.62C31.9871 37.62 32.4209 36.7527 32.2134 35.7343L28.6872 17.7829C28.461 16.595 27.4615 15.7276 26.3114 15.7276H14.4506C13.3003 15.7276 12.3009 16.595 12.0746 17.7829L8.54846 35.7343C8.34104 36.7527 8.7936 37.62 10.0193 37.62ZM14.0357 17.255H26.7262L22.0309 3.24453C21.748 2.45256 21.2201 2 20.4092 2C19.5607 2 18.9761 2.45256 18.7121 3.24453L14.0357 17.255Z" fill="#9EFF00"/>
</g>
<defs>
<clipPath id="clip0_77_29490">
<rect width="23.7629" height="35.62" fill="white" transform="translate(8.5 2)"/>
</clipPath>
</defs>
</svg>
