<svg width="40" height="40" viewBox="0 0 40 40" fill="none" xmlns="http://www.w3.org/2000/svg">
<path d="M4 21.6977V24.0669C4 27.1754 5.56938 28.7449 8.73833 28.7449H12.5561V26.3154H8.7685C7.25948 26.3154 6.42952 25.5005 6.42952 23.9311V21.6977H4ZM6.42952 19.6304V12.7794H4V19.6304H6.42952ZM6.42952 10.7272V8.93143C6.42952 7.36205 7.25948 6.54718 8.7685 6.54718H10.9566V4.11766H8.73833C5.56938 4.11766 4 5.68704 4 8.79562V10.7272H6.42952ZM19.8598 4.11766H13.0088V6.54718H19.8598V4.11766ZM21.9121 6.54718H23.8437C25.3375 6.54718 26.1826 7.36205 26.1826 8.93143V12.2362H28.6121V8.79562C28.6121 5.68704 27.0276 4.11766 23.8889 4.11766H21.9121V6.54718ZM35.9309 27.4622V15.7824C35.9309 12.6738 34.3464 11.1044 31.2076 11.1044H16.0571C12.8881 11.1044 11.3187 12.6587 11.3187 15.7824V31.0537C11.3187 34.1622 12.8881 35.7317 16.0571 35.7317H23.6625V33.3022H16.0873C14.5933 33.3022 13.7483 32.4872 13.7483 30.9179V15.9183C13.7483 14.3488 14.5933 13.5339 16.0873 13.5339H31.1624C32.6563 13.5339 33.5014 14.3488 33.5014 15.9183V25.0176L35.9309 27.4622ZM25.0206 33.0003C25.0056 33.5888 25.6998 33.7699 26.0769 33.4078L28.3858 31.0989L30.9662 37.467C31.087 37.7537 31.3887 37.8896 31.6604 37.7839L33.1693 37.1803C33.4259 37.0595 33.5466 36.7426 33.3957 36.456L30.6946 30.1785L33.954 30.0577C34.5124 30.0276 34.7991 29.4692 34.3917 29.0467L26.1373 20.5659C25.76 20.1736 25.1715 20.4 25.1565 20.9583L25.0206 33.0003Z" fill="#9EFF00"/>
</svg>
