<svg width="119" height="40" viewBox="0 0 119 40" fill="none" xmlns="http://www.w3.org/2000/svg">
<rect width="40.1878" height="40" rx="5" fill="#9EFF00"/>
<path d="M7.32373 12.4749L20.0937 20V34.3662L7.32373 27.0691L7.32373 12.4749Z" fill="#1A1A1A"/>
<path fill-rule="evenodd" clip-rule="evenodd" d="M21.2205 19.9899V32.4246L31.7369 26.4152V13.7927L21.2205 19.9899ZM32.8637 27.0691L20.0937 34.3662V20L7.32373 12.4748L20.0937 5.63379L32.8637 12.4748V27.0691ZM31.1462 12.833L20.0937 6.91205L9.62249 12.5216L20.6485 19.0191L31.1462 12.833Z" fill="#1A1A1A"/>
<path d="M51.0712 13.3333C53.0918 13.3333 54.6221 14.4327 55.0084 16.2007L52.9878 16.6167C52.8392 15.6807 52.0221 15.0715 51.0266 15.0715C50.0164 15.0715 49.4072 15.6361 49.4072 16.3047C49.4072 16.8098 49.6301 17.1664 50.4026 17.315L52.5421 17.7458C54.1615 18.0875 55.1569 19.0533 55.1569 20.5984C55.1569 22.5298 53.5672 23.7333 51.2049 23.7333C49.1249 23.7333 47.2975 22.7675 47.0449 20.7767L49.1695 20.3458C49.4369 21.475 50.2689 21.9653 51.3981 21.9653C52.5569 21.9653 53.1661 21.4155 53.1661 20.7024C53.1661 20.1378 52.8986 19.7961 52.0072 19.6178L49.8975 19.2167C48.7089 18.9641 47.2826 18.3104 47.2826 16.3641C47.2826 14.5813 48.7386 13.3333 51.0712 13.3333Z" fill="white"/>
<path d="M64.3925 16.0967V26.0361H62.4314V22.931C61.8074 23.4361 60.9902 23.7333 59.9799 23.7333C58.0931 23.7333 56.3399 22.1435 56.3399 19.811C56.3399 17.4784 58.0931 15.8738 59.9799 15.8738C60.9902 15.8738 61.8074 16.171 62.4314 16.691V16.0967H64.3925ZM60.3216 22.0247C61.3765 22.0247 62.4314 21.1778 62.4314 19.811C62.4314 18.4441 61.3765 17.5824 60.3216 17.5824C59.1331 17.5824 58.2416 18.4441 58.2416 19.811C58.2416 21.1778 59.1331 22.0247 60.3216 22.0247Z" fill="white"/>
<path d="M73.466 16.0967V23.5104H71.5049V22.8418C70.9255 23.4213 70.1529 23.7333 69.1723 23.7333C67.3895 23.7333 66.2009 22.4555 66.2009 20.6133V16.0967H68.162V20.1973C68.162 21.2373 68.7563 21.9355 69.6626 21.9355C70.7769 21.9355 71.5049 21.1927 71.5049 19.3801V16.0967H73.466Z" fill="white"/>
<path d="M83.0075 16.0967V23.5104H81.0463V22.931C80.4223 23.4361 79.6052 23.7333 78.5949 23.7333C76.708 23.7333 74.9549 22.1435 74.9549 19.811C74.9549 17.4784 76.708 15.8738 78.5949 15.8738C79.6052 15.8738 80.4223 16.171 81.0463 16.691V16.0967H83.0075ZM78.9366 22.0247C79.9915 22.0247 81.0463 21.1778 81.0463 19.811C81.0463 18.4441 79.9915 17.5824 78.9366 17.5824C77.748 17.5824 76.8566 18.4441 76.8566 19.811C76.8566 21.1778 77.748 22.0247 78.9366 22.0247Z" fill="white"/>
<path d="M89.7021 15.9927C89.8952 15.9927 90.0438 15.9927 90.2221 16.0521L90.1181 17.939H89.6872C87.8747 17.939 87.0427 19.0533 87.0427 21.1184V23.5104H85.0815V16.0967H87.0427V17.4487C87.637 16.587 88.4987 15.9927 89.7021 15.9927Z" fill="white"/>
<path d="M98.3761 19.6624V20.331H92.7304C92.9235 21.4007 93.6813 22.0544 94.5875 22.0544C95.167 22.0544 95.895 21.9801 96.4298 21.0738L98.183 21.4453C97.5293 22.9904 96.207 23.7333 94.5875 23.7333C92.4927 23.7333 90.7841 22.1435 90.7841 19.811C90.7841 17.4784 92.4927 15.8738 94.6173 15.8738C96.5933 15.8738 98.3018 17.4041 98.3761 19.6624ZM94.6173 17.5824C93.8744 17.5824 93.0276 18.0281 92.7898 18.9493H96.3704C96.1178 17.9984 95.4047 17.5824 94.6173 17.5824Z" fill="white"/>
<path d="M108.439 13.5561V19.0533C108.439 21.8464 106.73 23.7333 104.16 23.7333C101.53 23.7333 99.777 21.8464 99.777 19.0533V13.5561H101.798V19.0533C101.798 20.7173 102.734 21.8018 104.16 21.8018C105.512 21.8018 106.418 20.7173 106.418 19.0533V13.5561H108.439Z" fill="white"/>
<path d="M114.841 15.8738C116.728 15.8738 118.481 17.4784 118.481 19.811C118.481 22.1435 116.728 23.7333 114.841 23.7333C113.831 23.7333 113.014 23.4361 112.39 22.931V26.0361H110.429V16.0967H112.39V16.691C113.014 16.171 113.831 15.8738 114.841 15.8738ZM114.499 22.0247C115.688 22.0247 116.579 21.1778 116.579 19.811C116.579 18.4441 115.688 17.5824 114.499 17.5824C113.445 17.5824 112.39 18.4441 112.39 19.811C112.39 21.1778 113.445 22.0247 114.499 22.0247Z" fill="white"/>
</svg>
